<svg width="1169" height="589" fill="none" xmlns="http://www.w3.org/2000/svg"><path d="M299.2 4.7a4.7 4.7 0 1 1-9.4 0 4.7 4.7 0 0 1 9.4 0Zm12.6 0a4.7 4.7 0 1 1-9.4 0 4.7 4.7 0 0 1 9.4 0Zm12.6 0a4.7 4.7 0 1 1-9.4 0 4.7 4.7 0 0 1 9.4 0Zm12.6 0a4.7 4.7 0 1 1-9.4 0 4.7 4.7 0 0 1 9.4 0Zm12.7 0a4.7 4.7 0 1 1-9.5 0 4.7 4.7 0 0 1 9.5 0Zm12.5 0a4.7 4.7 0 1 1-9.5 0 4.7 4.7 0 0 1 9.5 0Zm12.6 0a4.7 4.7 0 1 1-9.5 0 4.7 4.7 0 0 1 9.5 0Zm12.6 0a4.7 4.7 0 1 1-9.4 0 4.7 4.7 0 0 1 9.4 0Zm12.6 0a4.7 4.7 0 1 1-9.4 0 4.7 4.7 0 0 1 9.4 0Zm12.6 0a4.7 4.7 0 1 1-9.5 0 4.7 4.7 0 0 1 9.5 0Zm12.6 0a4.7 4.7 0 1 1-9.4 0 4.7 4.7 0 0 1 9.4 0Zm12.6 0a4.7 4.7 0 1 1-9.5 0 4.7 4.7 0 0 1 9.5 0Zm12.6 0a4.7 4.7 0 1 1-9.4 0 4.7 4.7 0 0 1 9.4 0Zm12.6 0a4.7 4.7 0 1 1-9.4 0 4.7 4.7 0 0 1 9.4 0Zm12.6 0a4.7 4.7 0 1 1-9.5 0 4.7 4.7 0 0 1 9.5 0Zm12.6 0a4.7 4.7 0 1 1-9.4 0 4.7 4.7 0 0 1 9.4 0Zm12.6 0a4.7 4.7 0 1 1-9.5 0 4.7 4.7 0 0 1 9.5 0Zm63 0a4.7 4.7 0 1 1-9.5 0 4.7 4.7 0 0 1 9.5 0Zm12.6 0a4.7 4.7 0 1 1-9.4 0 4.7 4.7 0 0 1 9.4 0Zm12.6 0a4.7 4.7 0 1 1-9.4 0 4.7 4.7 0 0 1 9.4 0Zm12.6 0a4.7 4.7 0 1 1-9.5 0 4.7 4.7 0 0 1 9.5 0Zm50.4 0a4.7 4.7 0 1 1-9.4 0 4.7 4.7 0 0 1 9.4 0Zm12.6 0a4.7 4.7 0 1 1-9.5 0 4.7 4.7 0 0 1 9.5 0Zm12.6 0a4.7 4.7 0 1 1-9.5 0 4.7 4.7 0 0 1 9.5 0Zm88.2 0a4.7 4.7 0 1 1-9.5 0 4.7 4.7 0 0 1 9.5 0Zm12.6 0a4.7 4.7 0 1 1-9.5 0 4.7 4.7 0 0 1 9.5 0ZM211 17.3a4.7 4.7 0 1 1-9.4 0 4.7 4.7 0 0 1 9.4 0Zm12.7 0a4.7 4.7 0 1 1-9.5 0 4.7 4.7 0 0 1 9.5 0Zm12.5 0a4.7 4.7 0 1 1-9.4 0 4.7 4.7 0 0 1 9.4 0Zm12.6 0a4.7 4.7 0 1 1-9.4 0 4.7 4.7 0 0 1 9.4 0Zm12.6 0a4.7 4.7 0 1 1-9.4 0 4.7 4.7 0 0 1 9.4 0Zm12.6 0a4.7 4.7 0 1 1-9.4 0 4.7 4.7 0 0 1 9.4 0Zm12.6 0a4.7 4.7 0 1 1-9.4 0 4.7 4.7 0 0 1 9.4 0Zm12.6 0a4.7 4.7 0 0 1-9.3 1 4.7 4.7 0 1 1 9.3-1Zm12.6 0a4.7 4.7 0 1 1-9.4 0 4.7 4.7 0 0 1 9.4 0Zm50.4 0a4.7 4.7 0 1 1-9.5 0 4.7 4.7 0 0 1 9.5 0Zm12.6 0a4.7 4.7 0 1 1-9.5 0 4.7 4.7 0 0 1 9.5 0Zm12.6 0a4.7 4.7 0 1 1-9.4 0 4.7 4.7 0 0 1 9.4 0Zm12.6 0a4.7 4.7 0 0 1-9.3 1 4.7 4.7 0 1 1 9.3-1Zm12.6 0a4.7 4.7 0 1 1-9.5 0 4.7 4.7 0 0 1 9.5 0Zm12.6 0a4.7 4.7 0 1 1-9.4 0 4.7 4.7 0 0 1 9.4 0Zm12.6 0a4.7 4.7 0 1 1-9.5 0 4.7 4.7 0 0 1 9.5 0Zm12.6 0a4.7 4.7 0 1 1-9.4 0 4.7 4.7 0 0 1 9.4 0Zm12.6 0a4.7 4.7 0 1 1-9.4 0 4.7 4.7 0 0 1 9.4 0Zm12.6 0a4.7 4.7 0 1 1-9.5 0 4.7 4.7 0 0 1 9.5 0Zm100.8 0a4.7 4.7 0 1 1-9.4 0 4.7 4.7 0 0 1 9.4 0Zm12.6 0a4.7 4.7 0 1 1-9.4 0 4.7 4.7 0 0 1 9.4 0Zm100.8 0a4.7 4.7 0 1 1-9.5 0 4.7 4.7 0 0 1 9.5 0Zm12.6 0a4.7 4.7 0 1 1-9.5 0 4.7 4.7 0 0 1 9.5 0Zm75.6 0a4.7 4.7 0 1 1-9.5 0 4.7 4.7 0 0 1 9.5 0Zm12.6 0a4.7 4.7 0 1 1-9.5 0 4.7 4.7 0 0 1 9.5 0Zm12.6 0a4.7 4.7 0 1 1-9.5 0 4.7 4.7 0 0 1 9.5 0Zm12.6 0a4.7 4.7 0 1 1-9.5 0 4.7 4.7 0 0 1 9.5 0Zm12.6 0a4.7 4.7 0 0 1-9.4 1 4.7 4.7 0 1 1 9.4-1Zm63.1 0a4.7 4.7 0 1 1-9.5 0 4.7 4.7 0 0 1 9.5 0ZM181.1 34.6a4.7 4.7 0 1 0 0-9.4 4.7 4.7 0 0 0 0 9.4Zm17.4-4.6a4.7 4.7 0 1 1-9.5 0 4.7 4.7 0 0 1 9.5 0Zm7.8 4.6a4.7 4.7 0 1 0 0-9.4 4.7 4.7 0 0 0 0 9.4Zm17.4-4.6a4.7 4.7 0 1 1-9.5 0 4.7 4.7 0 0 1 9.5 0Zm12.5 0a4.7 4.7 0 1 1-9.4 0 4.7 4.7 0 0 1 9.4 0Zm7.9 4.6a4.7 4.7 0 1 0 0-9.4 4.7 4.7 0 0 0 0 9.4Zm17.3-4.6a4.7 4.7 0 1 1-9.4 0 4.7 4.7 0 0 1 9.4 0Zm7.9 4.6a4.7 4.7 0 1 0 0-9.4 4.7 4.7 0 0 0 0 9.4Zm17.3-4.6a4.7 4.7 0 1 1-9.4 0 4.7 4.7 0 0 1 9.4 0Zm12.6 0a4.7 4.7 0 1 1-9.4 0 4.7 4.7 0 0 1 9.4 0Zm7.9 4.6a4.7 4.7 0 1 0 0-9.4 4.7 4.7 0 0 0 0 9.4Zm80.3-4.6a4.7 4.7 0 1 1-9.4 0 4.7 4.7 0 0 1 9.4 0Zm7.9 4.6a4.7 4.7 0 1 0 0-9.4 4.7 4.7 0 0 0 0 9.4Zm17.3-4.6a4.7 4.7 0 1 1-9.5 0 4.7 4.7 0 0 1 9.5 0Zm12.6 0a4.7 4.7 0 1 1-9.4 0 4.7 4.7 0 0 1 9.4 0Zm12.6 0a4.7 4.7 0 1 1-9.5 0 4.7 4.7 0 0 1 9.5 0Zm12.6 0a4.7 4.7 0 1 1-9.4 0 4.7 4.7 0 0 1 9.4 0Zm7.9 4.6a4.7 4.7 0 1 0 0-9.4 4.7 4.7 0 0 0 0 9.4Zm214.2 0a4.7 4.7 0 1 0 0-9.4 4.7 4.7 0 0 0 0 9.4Zm17.3-4.6a4.7 4.7 0 1 1-9.5 0 4.7 4.7 0 0 1 9.5 0Zm37.8 0a4.7 4.7 0 1 1-9.5 0 4.7 4.7 0 0 1 9.5 0Zm25.2 0a4.7 4.7 0 1 1-9.5 0 4.7 4.7 0 0 1 9.5 0Zm12.6 0a4.7 4.7 0 1 1-9.5 0 4.7 4.7 0 0 1 9.5 0Zm12.6 0a4.7 4.7 0 1 1-9.5 0 4.7 4.7 0 0 1 9.5 0Zm12.6 0a4.7 4.7 0 1 1-9.5 0 4.7 4.7 0 0 1 9.5 0Zm7.8 4.6a4.7 4.7 0 1 0 0-9.4 4.7 4.7 0 0 0 0 9.4Zm17.4-4.6a4.7 4.7 0 1 1-9.5 0 4.7 4.7 0 0 1 9.5 0Zm7.8 4.6a4.7 4.7 0 1 0 0-9.4 4.7 4.7 0 0 0 0 9.4ZM841 30a4.7 4.7 0 1 1-9.5 0 4.7 4.7 0 0 1 9.5 0Zm12.6 0a4.7 4.7 0 1 1-9.5 0 4.7 4.7 0 0 1 9.5 0Zm7.8 4.6a4.7 4.7 0 1 0 0-9.4 4.7 4.7 0 0 0 0 9.4Zm17.4-4.6a4.7 4.7 0 1 1-9.5 0 4.7 4.7 0 0 1 9.5 0Zm25.2 0a4.7 4.7 0 1 1-9.5 0 4.7 4.7 0 0 1 9.5 0Zm12.4 0a4.7 4.7 0 1 1-9.4 0 4.7 4.7 0 0 1 9.4 0Zm8 4.6a4.7 4.7 0 1 0 0-9.4 4.7 4.7 0 0 0 0 9.4Zm17.4-4.6a4.7 4.7 0 1 1-9.5 0 4.7 4.7 0 0 1 9.5 0ZM59.9 42.5a4.7 4.7 0 1 1-9.5 0 4.7 4.7 0 0 1 9.5 0Zm12.7 0a4.7 4.7 0 1 1-9.5 0 4.7 4.7 0 0 1 9.5 0Zm12.4 0a4.7 4.7 0 1 1-9.4 0 4.7 4.7 0 0 1 9.4 0Zm12.7 0a4.7 4.7 0 1 1-9.5 0 4.7 4.7 0 0 1 9.5 0Zm12.6 0a4.7 4.7 0 1 1-9.5 0 4.7 4.7 0 0 1 9.5 0Zm12.6 0a4.7 4.7 0 1 1-9.5 0 4.7 4.7 0 0 1 9.5 0Zm12.6 0a4.7 4.7 0 1 1-9.5 0 4.7 4.7 0 0 1 9.5 0Zm12.5 0a4.7 4.7 0 1 1-9.4 0 4.7 4.7 0 0 1 9.5 0Zm12.7 0a4.7 4.7 0 1 1-9.5 0 4.7 4.7 0 0 1 9.5 0Zm12.5 0a4.7 4.7 0 1 1-9.4 0 4.7 4.7 0 0 1 9.4 0Zm12.7 0a4.7 4.7 0 1 1-9.5 0 4.7 4.7 0 0 1 9.5 0Zm12.6 0a4.7 4.7 0 1 1-9.5 0 4.7 4.7 0 0 1 9.5 0Zm12.5 0a4.7 4.7 0 1 1-9.4 0 4.7 4.7 0 0 1 9.4 0Zm12.7 0a4.7 4.7 0 1 1-9.5 0 4.7 4.7 0 0 1 9.5 0Zm12.5 0a4.7 4.7 0 1 1-9.4 0 4.7 4.7 0 0 1 9.4 0Zm12.6 0a4.7 4.7 0 1 1-9.4 0 4.7 4.7 0 0 1 9.4 0Zm12.6 0a4.7 4.7 0 1 1-9.4 0 4.7 4.7 0 0 1 9.4 0Zm12.6 0a4.7 4.7 0 1 1-9.4 0 4.7 4.7 0 0 1 9.4 0Zm12.6 0a4.7 4.7 0 1 1-9.4 0 4.7 4.7 0 0 1 9.4 0Zm12.6 0a4.7 4.7 0 0 1-9.3 1 4.7 4.7 0 1 1 9.3-1Zm12.6 0a4.7 4.7 0 1 1-9.5 0 4.7 4.7 0 0 1 9.5 0Zm12.6 0a4.7 4.7 0 1 1-9.4 0 4.7 4.7 0 0 1 9.4 0Zm63 0a4.7 4.7 0 1 1-9.4 0 4.7 4.7 0 0 1 9.4 0Zm12.6 0a4.7 4.7 0 0 1-9.3 1 4.7 4.7 0 1 1 9.3-1Zm12.6 0a4.7 4.7 0 1 1-9.5 0 4.7 4.7 0 0 1 9.5 0Zm12.6 0a4.7 4.7 0 1 1-9.4 0 4.7 4.7 0 0 1 9.4 0Zm12.6 0a4.7 4.7 0 1 1-9.5 0 4.7 4.7 0 0 1 9.5 0Zm12.6 0a4.7 4.7 0 1 1-9.4 0 4.7 4.7 0 0 1 9.4 0Zm12.6 0a4.7 4.7 0 1 1-9.4 0 4.7 4.7 0 0 1 9.4 0Zm113.4 0a4.7 4.7 0 1 1-9.4 0 4.7 4.7 0 0 1 9.4 0Zm12.6 0a4.7 4.7 0 1 1-9.4 0 4.7 4.7 0 0 1 9.4 0Zm12.6 0a4.7 4.7 0 1 1-9.5 0 4.7 4.7 0 0 1 9.5 0Zm12.6 0a4.7 4.7 0 0 1-9.4 1 4.7 4.7 0 1 1 9.4-1Zm12.6 0a4.7 4.7 0 1 1-9.5 0 4.7 4.7 0 0 1 9.5 0Zm75.6 0a4.7 4.7 0 1 1-9.5 0 4.7 4.7 0 0 1 9.5 0Zm12.6 0a4.7 4.7 0 1 1-9.5 0 4.7 4.7 0 0 1 9.5 0Zm12.6 0a4.7 4.7 0 1 1-9.5 0 4.7 4.7 0 0 1 9.5 0Zm12.6 0a4.7 4.7 0 1 1-9.5 0 4.7 4.7 0 0 1 9.5 0Zm12.6 0a4.7 4.7 0 1 1-9.5 0 4.7 4.7 0 0 1 9.5 0Zm12.6 0a4.7 4.7 0 1 1-9.5 0 4.7 4.7 0 0 1 9.5 0Zm12.6 0a4.7 4.7 0 1 1-9.5 0 4.7 4.7 0 0 1 9.5 0Zm12.6 0a4.7 4.7 0 1 1-9.5 0 4.7 4.7 0 0 1 9.5 0Zm12.6 0a4.7 4.7 0 1 1-9.5 0 4.7 4.7 0 0 1 9.5 0Zm12.6 0a4.7 4.7 0 1 1-9.5 0 4.7 4.7 0 0 1 9.5 0Zm12.6 0a4.7 4.7 0 0 1-9.4 1 4.7 4.7 0 1 1 9.4-1Zm12.6 0a4.7 4.7 0 1 1-9.5 0 4.7 4.7 0 0 1 9.5 0Zm12.6 0a4.7 4.7 0 1 1-9.5 0 4.7 4.7 0 0 1 9.5 0Zm12.6 0a4.7 4.7 0 1 1-9.5 0 4.7 4.7 0 0 1 9.5 0Zm12.6 0a4.7 4.7 0 1 1-9.5 0 4.7 4.7 0 0 1 9.5 0Zm12.7 0a4.7 4.7 0 1 1-9.5 0 4.7 4.7 0 0 1 9.5 0Zm12.5 0a4.7 4.7 0 1 1-9.5 0 4.7 4.7 0 0 1 9.5 0Zm12.4 0a4.7 4.7 0 1 1-9.4 0 4.7 4.7 0 0 1 9.4 0Zm12.7 0a4.7 4.7 0 1 1-9.4 0 4.7 4.7 0 0 1 9.4 0Zm12.7 0a4.7 4.7 0 1 1-9.5 0 4.7 4.7 0 0 1 9.5 0Zm12.5 0a4.7 4.7 0 1 1-9.4 0 4.7 4.7 0 0 1 9.4 0Zm12.7 0a4.7 4.7 0 1 1-9.5 0 4.7 4.7 0 0 1 9.4 0Zm12.5 0a4.7 4.7 0 1 1-9.4 0 4.7 4.7 0 0 1 9.4 0Zm12.6 0a4.7 4.7 0 1 1-9.4 0 4.7 4.7 0 0 1 9.4 0Zm12.7 0a4.8 4.8 0 1 1-9.6 0 4.8 4.8 0 0 1 9.5 0Zm12.5 0Zm12.7 0a4.8 4.8 0 0 1-5.7 4.7 4.8 4.8 0 0 1-3.8-3.8 4.8 4.8 0 0 1 4.7-5.6 4.7 4.7 0 0 1 4.7 4.7Zm12.5 0a4.7 4.7 0 0 1-5.6 4.6 4.7 4.7 0 0 1-3.7-3.7 4.7 4.7 0 0 1 2-4.8 4.7 4.7 0 0 1 6 .6 4.6 4.6 0 0 1 1.3 3.3Zm12.6 0ZM30 59.8a4.7 4.7 0 1 0 0-9.4 4.7 4.7 0 0 0 0 9.4Zm17.3-4.7a4.7 4.7 0 1 1-9.5 0 4.7 4.7 0 0 1 9.5 0Zm7.9 4.7a4.7 4.7 0 1 0 0-9.4 4.7 4.7 0 0 0 0 9.4Zm17.4-4.7a4.7 4.7 0 1 1-9.5 0 4.7 4.7 0 0 1 9.5 0Zm12.4 0a4.7 4.7 0 1 1-9.4 0 4.7 4.7 0 0 1 9.4 0Zm12.7 0a4.7 4.7 0 1 1-9.5 0 4.7 4.7 0 0 1 9.5 0Zm12.6 0a4.7 4.7 0 1 1-9.5 0 4.7 4.7 0 0 1 9.5 0Zm7.8 4.7a4.7 4.7 0 1 0 0-9.4 4.7 4.7 0 0 0 0 9.4Zm17.4-4.7a4.7 4.7 0 1 1-9.5 0 4.7 4.7 0 0 1 9.5 0Zm7.8 4.7a4.7 4.7 0 1 0 0-9.4 4.7 4.7 0 0 0 0 9.4Zm17.4-4.7a4.7 4.7 0 1 1-9.5 0 4.7 4.7 0 0 1 9.5 0Zm12.5 0a4.7 4.7 0 1 1-9.4 0 4.7 4.7 0 0 1 9.4 0Zm7.9 4.7a4.7 4.7 0 1 0 0-9.4 4.7 4.7 0 0 0 0 9.4Zm17.4-4.7a4.7 4.7 0 1 1-9.5 0 4.7 4.7 0 0 1 9.5 0Zm7.8 4.7a4.7 4.7 0 1 0 0-9.4 4.7 4.7 0 0 0 0 9.4Zm17.4-4.7a4.7 4.7 0 1 1-9.5 0 4.7 4.7 0 0 1 9.5 0Zm12.5 0a4.7 4.7 0 1 1-9.4 0 4.7 4.7 0 0 1 9.4 0Zm7.9 4.7a4.7 4.7 0 1 0 0-9.4 4.7 4.7 0 0 0 0 9.4Zm17.3-4.7a4.7 4.7 0 1 1-9.4 0 4.7 4.7 0 0 1 9.4 0Zm45.7 4.7a4.7 4.7 0 1 0 0-9.4 4.7 4.7 0 0 0 0 9.4Zm17.3-4.7a4.7 4.7 0 1 1-9.4 0 4.7 4.7 0 0 1 9.4 0Zm7.9 4.7a4.7 4.7 0 1 0 0-9.4 4.7 4.7 0 0 0 0 9.4Zm42.5-4.7a4.7 4.7 0 1 1-9.5 0 4.7 4.7 0 0 1 9.5 0Zm12.6 0a4.7 4.7 0 1 1-9.4 0 4.7 4.7 0 0 1 9.4 0Zm7.9 4.7a4.7 4.7 0 1 0 0-9.4 4.7 4.7 0 0 0 0 9.4Zm17.3-4.7a4.7 4.7 0 1 1-9.5 0 4.7 4.7 0 0 1 9.5 0Zm12.6 0a4.7 4.7 0 1 1-9.4 0 4.7 4.7 0 0 1 9.4 0Zm33.1 4.7a4.7 4.7 0 1 0 0-9.4 4.7 4.7 0 0 0 0 9.4Zm17.3-4.7a4.7 4.7 0 1 1-9.5 0 4.7 4.7 0 0 1 9.5 0Zm7.9 4.7a4.7 4.7 0 1 0 0-9.4 4.7 4.7 0 0 0 0 9.4Zm80.3-4.7a4.7 4.7 0 1 1-9.5 0 4.7 4.7 0 0 1 9.5 0Zm12.6 0a4.7 4.7 0 1 1-9.4 0 4.7 4.7 0 0 1 9.4 0Zm7.9 4.7a4.7 4.7 0 1 0 0-9.4 4.7 4.7 0 0 0 0 9.4Zm17.3-4.7a4.7 4.7 0 1 1-9.5 0 4.7 4.7 0 0 1 9.5 0Zm7.9 4.7a4.7 4.7 0 1 0 0-9.4 4.7 4.7 0 0 0 0 9.4Zm17.3-4.7a4.7 4.7 0 1 1-9.5 0 4.7 4.7 0 0 1 9.5 0Zm12.5 0a4.7 4.7 0 1 1-9.4 0 4.7 4.7 0 0 1 9.4 0Zm8 4.7a4.7 4.7 0 1 0 0-9.4 4.7 4.7 0 0 0 0 9.4Zm17.3-4.7a4.7 4.7 0 1 1-9.5 0 4.7 4.7 0 0 1 9.5 0Zm7.9 4.7a4.7 4.7 0 1 0 0-9.4 4.7 4.7 0 0 0 0 9.4Zm17.3-4.7a4.7 4.7 0 1 1-9.5 0 4.7 4.7 0 0 1 9.5 0Zm12.6 0a4.7 4.7 0 1 1-9.5 0 4.7 4.7 0 0 1 9.5 0Zm12.6 0a4.7 4.7 0 1 1-9.5 0 4.7 4.7 0 0 1 9.5 0Zm12.6 0a4.7 4.7 0 1 1-9.5 0 4.7 4.7 0 0 1 9.5 0Zm7.9 4.7a4.7 4.7 0 1 0 0-9.4 4.7 4.7 0 0 0 0 9.4Zm17.3-4.7a4.7 4.7 0 1 1-9.5 0 4.7 4.7 0 0 1 9.5 0Zm12.6 0a4.7 4.7 0 1 1-9.5 0 4.7 4.7 0 0 1 9.5 0Zm12.6 0a4.7 4.7 0 1 1-9.5 0 4.7 4.7 0 0 1 9.5 0Zm12.6 0a4.7 4.7 0 1 1-9.5 0 4.7 4.7 0 0 1 9.5 0Zm7.8 4.7a4.7 4.7 0 1 0 0-9.4 4.7 4.7 0 0 0 0 9.4Zm17.4-4.7a4.7 4.7 0 1 1-9.5 0 4.7 4.7 0 0 1 9.5 0Zm7.8 4.7a4.7 4.7 0 1 0 0-9.4 4.7 4.7 0 0 0 0 9.4Zm17.4-4.7a4.7 4.7 0 1 1-9.5 0 4.7 4.7 0 0 1 9.5 0Zm12.6 0a4.7 4.7 0 1 1-9.5 0 4.7 4.7 0 0 1 9.5 0Zm7.8 4.7a4.7 4.7 0 1 0 0-9.4 4.7 4.7 0 0 0 0 9.4Zm17.4-4.7a4.7 4.7 0 1 1-9.5 0 4.7 4.7 0 0 1 9.5 0Zm7.8 4.7a4.7 4.7 0 1 0 0-9.4 4.7 4.7 0 0 0 0 9.4Zm17.4-4.7a4.7 4.7 0 1 1-9.5 0 4.7 4.7 0 0 1 9.5 0Zm12.4 0a4.7 4.7 0 1 1-9.4 0 4.7 4.7 0 0 1 9.4 0Zm8 4.7a4.7 4.7 0 1 0 0-9.4 4.7 4.7 0 0 0 0 9.4Zm17.4-4.7a4.7 4.7 0 1 1-9.5 0 4.7 4.7 0 0 1 9.5 0Zm7.8 4.7a4.7 4.7 0 1 0 0-9.4 4.7 4.7 0 0 0 0 9.4Zm17.4-4.7a4.7 4.7 0 1 1-9.5 0 4.7 4.7 0 0 1 9.4 0Zm12.5 0a4.7 4.7 0 1 1-9.4 0 4.7 4.7 0 0 1 9.4 0Zm7.9 4.7a4.7 4.7 0 1 0 0-9.4 4.7 4.7 0 0 0 0 9.4Zm17.4-4.7a4.8 4.8 0 0 1-5.7 4.7 4.7 4.7 0 1 1 5.6-4.7Zm7.8 4.7a4.7 4.7 0 1 0 0-9.4 4.7 4.7 0 0 0 0 9.4Zm17.4-4.7a4.8 4.8 0 0 1-3 4.4 4.7 4.7 0 0 1-6.2-6.2 4.7 4.7 0 0 1 4.4-3 4.7 4.7 0 0 1 4.7 4.8Zm12.5 0a4.7 4.7 0 0 1-8 3.3 4.7 4.7 0 0 1 .7-7.2 4.7 4.7 0 0 1 7.3 3.9Zm7.9 4.7a4.7 4.7 0 1 0 0-9.4 4.7 4.7 0 0 0 0 9.4Zm17.3-4.7a4.8 4.8 0 0 1-5.6 4.7 4.7 4.7 0 1 1 5.6-4.7Zm7.9 4.7a4.7 4.7 0 1 0 0-9.4 4.7 4.7 0 0 0 0 9.4ZM9.5 67.7a4.7 4.7 0 1 1-9.5 0 4.7 4.7 0 0 1 9.5 0Zm12.5 0a4.7 4.7 0 1 1-9.4 0 4.7 4.7 0 0 1 9.5 0Zm12.7 0a4.7 4.7 0 1 1-9.5 0 4.7 4.7 0 0 1 9.5 0Zm12.6 0a4.7 4.7 0 1 1-9.5 0 4.7 4.7 0 0 1 9.5 0Zm12.6 0a4.7 4.7 0 1 1-9.5 0 4.7 4.7 0 0 1 9.5 0Zm12.7 0a4.7 4.7 0 1 1-9.5 0 4.7 4.7 0 0 1 9.5 0Zm12.4 0a4.7 4.7 0 1 1-9.4 0 4.7 4.7 0 0 1 9.4 0Zm12.7 0a4.7 4.7 0 1 1-9.5 0 4.7 4.7 0 0 1 9.5 0Zm12.6 0a4.7 4.7 0 1 1-9.5 0 4.7 4.7 0 0 1 9.5 0Zm12.6 0a4.7 4.7 0 1 1-9.5 0 4.7 4.7 0 0 1 9.5 0Zm12.6 0a4.7 4.7 0 1 1-9.5 0 4.7 4.7 0 0 1 9.5 0Zm12.5 0a4.7 4.7 0 1 1-9.4 0 4.7 4.7 0 0 1 9.5 0Zm12.7 0a4.7 4.7 0 1 1-9.5 0 4.7 4.7 0 0 1 9.5 0Zm12.5 0a4.7 4.7 0 1 1-9.4 0 4.7 4.7 0 0 1 9.4 0Zm12.7 0a4.7 4.7 0 1 1-9.5 0 4.7 4.7 0 0 1 9.5 0Zm12.6 0a4.7 4.7 0 1 1-9.5 0 4.7 4.7 0 0 1 9.5 0Zm12.5 0a4.7 4.7 0 1 1-9.4 0 4.7 4.7 0 0 1 9.4 0Zm12.7 0a4.7 4.7 0 1 1-9.5 0 4.7 4.7 0 0 1 9.5 0Zm12.5 0a4.7 4.7 0 1 1-9.4 0 4.7 4.7 0 0 1 9.4 0Zm12.6 0a4.7 4.7 0 1 1-9.4 0 4.7 4.7 0 0 1 9.4 0Zm50.4 0a4.7 4.7 0 1 1-9.4 0 4.7 4.7 0 0 1 9.4 0Zm12.6 0a4.7 4.7 0 1 1-9.4 0 4.7 4.7 0 0 1 9.4 0Zm12.6 0a4.7 4.7 0 1 1-9.4 0 4.7 4.7 0 0 1 9.4 0Zm63 0a4.7 4.7 0 1 1-9.4 0 4.7 4.7 0 0 1 9.4 0Zm12.6 0a4.7 4.7 0 1 1-9.4 0 4.7 4.7 0 0 1 9.4 0Zm63 0a4.7 4.7 0 1 1-9.4 0 4.7 4.7 0 0 1 9.4 0Zm12.6 0a4.7 4.7 0 1 1-9.5 0 4.7 4.7 0 0 1 9.5 0Zm75.6 0a4.7 4.7 0 1 1-9.4 0 4.7 4.7 0 0 1 9.4 0Zm12.6 0a4.7 4.7 0 1 1-9.5 0 4.7 4.7 0 0 1 9.5 0Zm12.6 0a4.7 4.7 0 1 1-9.4 0 4.7 4.7 0 0 1 9.4 0Zm25.2 0a4.7 4.7 0 1 1-9.5 0 4.7 4.7 0 0 1 9.5 0Zm12.6 0a4.7 4.7 0 1 1-9.4 0 4.7 4.7 0 0 1 9.4 0Zm12.6 0a4.7 4.7 0 1 1-9.5 0 4.7 4.7 0 0 1 9.5 0Zm12.5 0a4.7 4.7 0 1 1-9.4 0 4.7 4.7 0 0 1 9.4 0Zm12.7 0a4.7 4.7 0 1 1-9.4 0 4.7 4.7 0 0 1 9.4 0Zm12.6 0a4.7 4.7 0 1 1-9.5 0 4.7 4.7 0 0 1 9.5 0Zm12.6 0a4.7 4.7 0 1 1-9.4 0 4.7 4.7 0 0 1 9.4 0Zm12.6 0a4.7 4.7 0 1 1-9.5 0 4.7 4.7 0 0 1 9.5 0Zm12.6 0a4.7 4.7 0 1 1-9.5 0 4.7 4.7 0 0 1 9.5 0Zm12.6 0a4.7 4.7 0 1 1-9.5 0 4.7 4.7 0 0 1 9.5 0Zm12.6 0a4.7 4.7 0 1 1-9.5 0 4.7 4.7 0 0 1 9.5 0Zm12.6 0a4.7 4.7 0 1 1-9.5 0 4.7 4.7 0 0 1 9.5 0Zm12.6 0a4.7 4.7 0 1 1-9.5 0 4.7 4.7 0 0 1 9.5 0Zm12.6 0a4.7 4.7 0 1 1-9.5 0 4.7 4.7 0 0 1 9.5 0Zm12.6 0a4.7 4.7 0 1 1-9.5 0 4.7 4.7 0 0 1 9.5 0Zm12.6 0a4.7 4.7 0 1 1-9.5 0 4.7 4.7 0 0 1 9.5 0Zm12.6 0a4.7 4.7 0 1 1-9.5 0 4.7 4.7 0 0 1 9.5 0Zm12.6 0a4.7 4.7 0 1 1-9.5 0 4.7 4.7 0 0 1 9.5 0Zm12.6 0a4.7 4.7 0 1 1-9.5 0 4.7 4.7 0 0 1 9.5 0Zm12.6 0a4.7 4.7 0 1 1-9.5 0 4.7 4.7 0 0 1 9.5 0Zm12.6 0a4.7 4.7 0 1 1-9.5 0 4.7 4.7 0 0 1 9.5 0Zm12.6 0a4.7 4.7 0 1 1-9.5 0 4.7 4.7 0 0 1 9.5 0Zm12.6 0a4.7 4.7 0 1 1-9.5 0 4.7 4.7 0 0 1 9.5 0Zm12.7 0a4.7 4.7 0 1 1-9.5 0 4.7 4.7 0 0 1 9.5 0Zm12.5 0a4.7 4.7 0 1 1-9.5 0 4.7 4.7 0 0 1 9.5 0Zm12.4 0a4.7 4.7 0 1 1-9.4 0 4.7 4.7 0 0 1 9.4 0Zm12.7 0a4.7 4.7 0 1 1-9.4 0 4.7 4.7 0 0 1 9.4 0Zm12.7 0a4.7 4.7 0 1 1-9.5 0 4.7 4.7 0 0 1 9.5 0Zm12.5 0a4.7 4.7 0 1 1-9.4 0 4.7 4.7 0 0 1 9.4 0Zm12.7 0a4.7 4.7 0 1 1-9.5 0 4.7 4.7 0 0 1 9.4 0Zm12.5 0a4.7 4.7 0 1 1-9.4 0 4.7 4.7 0 0 1 9.4 0Zm12.6 0a4.7 4.7 0 1 1-9.4 0 4.7 4.7 0 0 1 9.4 0Zm12.7 0a4.8 4.8 0 0 1-5.7 4.7 4.7 4.7 0 1 1 5.6-4.7Zm12.5 0a4.7 4.7 0 0 1-8 3.3 4.7 4.7 0 0 1 .7-7.2 4.7 4.7 0 0 1 7.3 4Zm12.7 0a4.8 4.8 0 0 1-3 4.4 4.7 4.7 0 0 1-6.2-6.2 4.7 4.7 0 0 1 4.4-3 4.7 4.7 0 0 1 4.7 4.8Zm12.5 0a4.7 4.7 0 0 1-8 3.3 4.7 4.7 0 0 1 .7-7.2 4.7 4.7 0 0 1 7.3 4Zm12.6 0a4.7 4.7 0 0 1-8 3.3 4.8 4.8 0 0 1-1.3-2.4c-.2-.9-.1-1.8.3-2.7a4.8 4.8 0 0 1 4.3-3 4.7 4.7 0 0 1 4.7 4.8Zm12.6 0a4.8 4.8 0 0 1-5.6 4.7 4.7 4.7 0 1 1 5.6-4.7ZM4.7 85a4.7 4.7 0 1 0 0-9.4 4.7 4.7 0 0 0 0 9.4Zm12.7 0a4.7 4.7 0 1 0 0-9.4 4.7 4.7 0 0 0 0 9.4ZM30 85a4.7 4.7 0 1 0 0-9.4 4.7 4.7 0 0 0 0 9.4Zm17.3-4.7a4.7 4.7 0 1 1-9.5 0 4.7 4.7 0 0 1 9.5 0Zm7.9 4.7a4.7 4.7 0 1 0 0-9.4 4.7 4.7 0 0 0 0 9.4Zm17.4-4.7a4.7 4.7 0 1 1-9.5 0 4.7 4.7 0 0 1 9.5 0Zm12.4 0a4.7 4.7 0 1 1-9.4 0 4.7 4.7 0 0 1 9.4 0Zm12.7 0a4.7 4.7 0 1 1-9.5 0 4.7 4.7 0 0 1 9.5 0Zm12.6 0a4.7 4.7 0 1 1-9.5 0 4.7 4.7 0 0 1 9.5 0Zm7.8 4.7a4.7 4.7 0 1 0 0-9.4 4.7 4.7 0 0 0 0 9.4Zm17.4-4.7a4.7 4.7 0 1 1-9.5 0 4.7 4.7 0 0 1 9.5 0Zm7.8 4.7a4.7 4.7 0 1 0 0-9.4 4.7 4.7 0 0 0 0 9.4Zm17.4-4.7a4.7 4.7 0 1 1-9.5 0 4.7 4.7 0 0 1 9.5 0Zm12.5 0a4.7 4.7 0 1 1-9.4 0 4.7 4.7 0 0 1 9.4 0Zm7.9 4.7a4.7 4.7 0 1 0 0-9.4 4.7 4.7 0 0 0 0 9.4Zm17.4-4.7a4.7 4.7 0 1 1-9.5 0 4.7 4.7 0 0 1 9.5 0Zm7.8 4.7a4.7 4.7 0 1 0 0-9.4 4.7 4.7 0 0 0 0 9.4Zm17.4-4.7a4.7 4.7 0 1 1-9.5 0 4.7 4.7 0 0 1 9.5 0Zm62.9 0a4.7 4.7 0 1 1-9.4 0 4.7 4.7 0 0 1 9.4 0Zm12.6 0a4.7 4.7 0 1 1-9.4 0 4.7 4.7 0 0 1 9.4 0Zm7.9 4.7a4.7 4.7 0 1 0 0-9.4 4.7 4.7 0 0 0 0 9.4Zm239.4 0a4.7 4.7 0 1 0 0-9.4 4.7 4.7 0 0 0 0 9.4Zm17.3-4.7a4.7 4.7 0 1 1-9.5 0 4.7 4.7 0 0 1 9.5 0Zm12.6 0a4.7 4.7 0 1 1-9.4 0 4.7 4.7 0 0 1 9.4 0Zm25.2 0a4.7 4.7 0 1 1-9.5 0 4.7 4.7 0 0 1 9.5 0Zm7.9 4.7a4.7 4.7 0 1 0 0-9.4 4.7 4.7 0 0 0 0 9.4Zm17.3-4.7a4.7 4.7 0 1 1-9.5 0 4.7 4.7 0 0 1 9.5 0Zm12.5 0a4.7 4.7 0 1 1-9.4 0 4.7 4.7 0 0 1 9.4 0Zm8 4.7a4.7 4.7 0 1 0 0-9.4 4.7 4.7 0 0 0 0 9.4Zm17.3-4.7a4.7 4.7 0 1 1-9.5 0 4.7 4.7 0 0 1 9.5 0Zm7.9 4.7a4.7 4.7 0 1 0 0-9.4 4.7 4.7 0 0 0 0 9.4Zm17.3-4.7a4.7 4.7 0 1 1-9.5 0 4.7 4.7 0 0 1 9.5 0Zm12.6 0a4.7 4.7 0 1 1-9.5 0 4.7 4.7 0 0 1 9.5 0Zm12.6 0a4.7 4.7 0 1 1-9.5 0 4.7 4.7 0 0 1 9.5 0Zm12.6 0a4.7 4.7 0 1 1-9.5 0 4.7 4.7 0 0 1 9.5 0Zm7.9 4.7a4.7 4.7 0 1 0 0-9.4 4.7 4.7 0 0 0 0 9.4Zm17.3-4.7a4.7 4.7 0 1 1-9.5 0 4.7 4.7 0 0 1 9.5 0Zm12.6 0a4.7 4.7 0 1 1-9.5 0 4.7 4.7 0 0 1 9.5 0Zm12.6 0a4.7 4.7 0 1 1-9.5 0 4.7 4.7 0 0 1 9.5 0Zm12.6 0a4.7 4.7 0 1 1-9.5 0 4.7 4.7 0 0 1 9.5 0Zm7.8 4.7a4.7 4.7 0 1 0 0-9.4 4.7 4.7 0 0 0 0 9.4Zm17.4-4.7a4.7 4.7 0 1 1-9.5 0 4.7 4.7 0 0 1 9.5 0Zm7.8 4.7a4.7 4.7 0 1 0 0-9.4 4.7 4.7 0 0 0 0 9.4Zm17.4-4.7a4.7 4.7 0 1 1-9.5 0 4.7 4.7 0 0 1 9.5 0Zm12.6 0a4.7 4.7 0 1 1-9.5 0 4.7 4.7 0 0 1 9.5 0Zm7.8 4.7a4.7 4.7 0 1 0 0-9.4 4.7 4.7 0 0 0 0 9.4Zm17.4-4.7a4.7 4.7 0 1 1-9.5 0 4.7 4.7 0 0 1 9.5 0Zm7.8 4.7a4.7 4.7 0 1 0 0-9.4 4.7 4.7 0 0 0 0 9.4Zm17.4-4.7a4.7 4.7 0 1 1-9.5 0 4.7 4.7 0 0 1 9.5 0Zm12.4 0a4.7 4.7 0 1 1-9.4 0 4.7 4.7 0 0 1 9.4 0Zm8 4.7a4.7 4.7 0 1 0 0-9.4 4.7 4.7 0 0 0 0 9.4Zm17.4-4.7a4.7 4.7 0 1 1-9.5 0 4.7 4.7 0 0 1 9.5 0Zm7.8 4.7a4.7 4.7 0 1 0 0-9.4 4.7 4.7 0 0 0 0 9.4Zm17.4-4.7a4.7 4.7 0 1 1-9.5 0 4.7 4.7 0 0 1 9.4 0Zm12.5 0a4.7 4.7 0 1 1-9.4 0 4.7 4.7 0 0 1 9.4 0Zm7.9 4.7a4.7 4.7 0 1 0 0-9.4 4.7 4.7 0 0 0 0 9.4Zm17.4-4.7A4.8 4.8 0 0 1 999 85a4.7 4.7 0 1 1 5.6-4.7Zm25.2 0a4.8 4.8 0 0 1-3 4.4 4.7 4.7 0 0 1-6.2-6.2 4.7 4.7 0 0 1 4.4-3 4.7 4.7 0 0 1 4.7 4.8Zm12.5 0a4.7 4.7 0 0 1-8 3.3 4.7 4.7 0 0 1 .7-7.2 4.7 4.7 0 0 1 7.3 3.9Zm7.9 4.7a4.7 4.7 0 1 0 0-9.4 4.7 4.7 0 0 0 0 9.4ZM9.5 92.9a4.7 4.7 0 1 1-9.5 0 4.7 4.7 0 0 1 9.5 0Zm12.5 0a4.7 4.7 0 1 1-9.4 0 4.7 4.7 0 0 1 9.5 0Zm12.7 0a4.7 4.7 0 1 1-9.5 0 4.7 4.7 0 0 1 9.5 0Zm50.3 0a4.7 4.7 0 1 1-9.4 0 4.7 4.7 0 0 1 9.4 0Zm12.7 0a4.7 4.7 0 1 1-9.5 0 4.7 4.7 0 0 1 9.5 0Zm12.6 0a4.7 4.7 0 1 1-9.5 0 4.7 4.7 0 0 1 9.5 0Zm12.6 0a4.7 4.7 0 1 1-9.5 0 4.7 4.7 0 0 1 9.5 0Zm12.6 0a4.7 4.7 0 1 1-9.5 0 4.7 4.7 0 0 1 9.5 0Zm12.5 0a4.7 4.7 0 1 1-9.4 0 4.7 4.7 0 0 1 9.5 0Zm12.7 0a4.7 4.7 0 1 1-9.5 0 4.7 4.7 0 0 1 9.5 0Zm12.5 0a4.7 4.7 0 1 1-9.4 0 4.7 4.7 0 0 1 9.4 0Zm12.7 0a4.7 4.7 0 1 1-9.5 0 4.7 4.7 0 0 1 9.5 0Zm12.6 0a4.7 4.7 0 1 1-9.5 0 4.7 4.7 0 0 1 9.5 0Zm12.5 0a4.7 4.7 0 1 1-9.4 0 4.7 4.7 0 0 1 9.4 0Zm12.7 0a4.7 4.7 0 1 1-9.5 0 4.7 4.7 0 0 1 9.5 0Zm62.9 0a4.7 4.7 0 1 1-9.4 0 4.7 4.7 0 0 1 9.4 0Zm12.6 0a4.7 4.7 0 1 1-9.4 0 4.7 4.7 0 0 1 9.4 0Zm12.6 0a4.7 4.7 0 1 1-9.4 0 4.7 4.7 0 0 1 9.4 0Zm12.6 0a4.7 4.7 0 1 1-9.4 0 4.7 4.7 0 0 1 9.4 0Zm176.4 0a4.7 4.7 0 1 1-9.5 0 4.7 4.7 0 0 1 9.5 0Zm12.6 0a4.7 4.7 0 1 1-9.4 0 4.7 4.7 0 0 1 9.4 0Zm50.4 0a4.7 4.7 0 1 1-9.5 0 4.7 4.7 0 0 1 9.5 0Zm12.6 0a4.7 4.7 0 1 1-9.4 0 4.7 4.7 0 0 1 9.4 0Zm25.2 0a4.7 4.7 0 1 1-9.5 0 4.7 4.7 0 0 1 9.5 0Zm12.6 0a4.7 4.7 0 1 1-9.4 0 4.7 4.7 0 0 1 9.4 0Zm12.6 0a4.7 4.7 0 1 1-9.5 0 4.7 4.7 0 0 1 9.5 0Zm12.5 0a4.7 4.7 0 1 1-9.4 0 4.7 4.7 0 0 1 9.4 0Zm12.7 0a4.7 4.7 0 1 1-9.4 0 4.7 4.7 0 0 1 9.4 0Zm12.6 0a4.7 4.7 0 1 1-9.5 0 4.7 4.7 0 0 1 9.5 0Zm12.6 0a4.7 4.7 0 1 1-9.4 0 4.7 4.7 0 0 1 9.4 0Zm12.6 0a4.7 4.7 0 1 1-9.5 0 4.7 4.7 0 0 1 9.5 0Zm12.6 0a4.7 4.7 0 1 1-9.5 0 4.7 4.7 0 0 1 9.5 0Zm12.6 0a4.7 4.7 0 1 1-9.5 0 4.7 4.7 0 0 1 9.5 0Zm12.6 0a4.7 4.7 0 1 1-9.5 0 4.7 4.7 0 0 1 9.5 0Zm12.6 0a4.7 4.7 0 1 1-9.5 0 4.7 4.7 0 0 1 9.5 0Zm12.6 0a4.7 4.7 0 1 1-9.5 0 4.7 4.7 0 0 1 9.5 0Zm12.6 0a4.7 4.7 0 1 1-9.5 0 4.7 4.7 0 0 1 9.5 0Zm12.6 0a4.7 4.7 0 1 1-9.5 0 4.7 4.7 0 0 1 9.5 0Zm12.6 0a4.7 4.7 0 1 1-9.5 0 4.7 4.7 0 0 1 9.5 0Zm12.6 0a4.7 4.7 0 1 1-9.5 0 4.7 4.7 0 0 1 9.5 0Zm12.6 0a4.7 4.7 0 1 1-9.5 0 4.7 4.7 0 0 1 9.5 0Zm12.6 0a4.7 4.7 0 1 1-9.5 0 4.7 4.7 0 0 1 9.5 0Zm12.6 0a4.7 4.7 0 1 1-9.5 0 4.7 4.7 0 0 1 9.5 0Zm12.6 0a4.7 4.7 0 1 1-9.5 0 4.7 4.7 0 0 1 9.5 0Zm12.6 0a4.7 4.7 0 1 1-9.5 0 4.7 4.7 0 0 1 9.5 0Zm12.6 0a4.7 4.7 0 1 1-9.5 0 4.7 4.7 0 0 1 9.5 0Zm12.7 0a4.7 4.7 0 1 1-9.5 0 4.7 4.7 0 0 1 9.5 0Zm12.5 0a4.7 4.7 0 1 1-9.5 0 4.7 4.7 0 0 1 9.5 0Zm12.4 0a4.7 4.7 0 1 1-9.4 0 4.7 4.7 0 0 1 9.4 0Zm12.7 0a4.7 4.7 0 1 1-9.4 0 4.7 4.7 0 0 1 9.4 0Zm12.7 0a4.7 4.7 0 1 1-9.5 0 4.7 4.7 0 0 1 9.5 0Zm12.5 0a4.7 4.7 0 1 1-9.4 0 4.7 4.7 0 0 1 9.4 0Zm12.7 0a4.7 4.7 0 1 1-9.5 0 4.7 4.7 0 0 1 9.4 0Zm63 0a4.8 4.8 0 0 1-3 4.4 4.7 4.7 0 0 1-6.2-6.2 4.7 4.7 0 0 1 4.4-3 4.7 4.7 0 0 1 4.7 4.8Zm12.5 0a4.7 4.7 0 0 1-8 3.3 4.7 4.7 0 0 1 .7-7.2 4.7 4.7 0 0 1 7.3 3.9ZM85 105.5a4.7 4.7 0 1 1-9.4 0 4.7 4.7 0 0 1 9.4 0Zm12.7 0a4.7 4.7 0 1 1-9.5 0 4.7 4.7 0 0 1 9.5 0Zm12.6 0a4.7 4.7 0 1 1-9.5 0 4.7 4.7 0 0 1 9.5 0Zm7.8 4.7a4.7 4.7 0 1 0 0-9.4 4.7 4.7 0 0 0 0 9.4Zm17.4-4.7a4.7 4.7 0 1 1-9.5 0 4.7 4.7 0 0 1 9.5 0Zm7.8 4.7a4.7 4.7 0 1 0 0-9.4 4.7 4.7 0 0 0 0 9.4Zm17.4-4.7a4.7 4.7 0 1 1-9.5 0 4.7 4.7 0 0 1 9.5 0Zm12.5 0a4.7 4.7 0 1 1-9.4 0 4.7 4.7 0 0 1 9.4 0Zm7.9 4.7a4.7 4.7 0 1 0 0-9.4 4.7 4.7 0 0 0 0 9.4Zm17.4-4.7a4.7 4.7 0 1 1-9.5 0 4.7 4.7 0 0 1 9.5 0Zm7.8 4.7a4.7 4.7 0 1 0 0-9.4 4.7 4.7 0 0 0 0 9.4Zm17.4-4.7a4.7 4.7 0 1 1-9.5 0 4.7 4.7 0 0 1 9.5 0Zm12.5 0a4.7 4.7 0 1 1-9.4 0 4.7 4.7 0 0 1 9.4 0Zm7.9 4.7a4.7 4.7 0 1 0 0-9.4 4.7 4.7 0 0 0 0 9.4Zm17.3-4.7a4.7 4.7 0 1 1-9.4 0 4.7 4.7 0 0 1 9.4 0Zm7.9 4.7a4.7 4.7 0 1 0 0-9.4 4.7 4.7 0 0 0 0 9.4Zm17.3-4.7a4.7 4.7 0 1 1-9.4 0 4.7 4.7 0 0 1 9.4 0Zm12.6 0a4.7 4.7 0 1 1-9.4 0 4.7 4.7 0 0 1 9.4 0Zm7.9 4.7a4.7 4.7 0 1 0 0-9.4 4.7 4.7 0 0 0 0 9.4Zm17.3-4.7a4.7 4.7 0 1 1-9.4 0 4.7 4.7 0 0 1 9.4 0Zm7.9 4.7a4.7 4.7 0 1 0 0-9.4 4.7 4.7 0 0 0 0 9.4Zm151.2 0a4.7 4.7 0 1 0 0-9.4 4.7 4.7 0 0 0 0 9.4Zm17.3-4.7a4.7 4.7 0 1 1-9.5 0 4.7 4.7 0 0 1 9.5 0Zm12.6 0a4.7 4.7 0 1 1-9.4 0 4.7 4.7 0 0 1 9.4 0Zm33.1 4.7a4.7 4.7 0 1 0 0-9.4 4.7 4.7 0 0 0 0 9.4Zm17.3-4.7a4.7 4.7 0 1 1-9.5 0 4.7 4.7 0 0 1 9.5 0Zm12.6 0a4.7 4.7 0 1 1-9.4 0 4.7 4.7 0 0 1 9.4 0Zm7.9 4.7a4.7 4.7 0 1 0 0-9.4 4.7 4.7 0 0 0 0 9.4Zm17.3-4.7a4.7 4.7 0 1 1-9.5 0 4.7 4.7 0 0 1 9.5 0Zm7.9 4.7a4.7 4.7 0 1 0 0-9.4 4.7 4.7 0 0 0 0 9.4Zm17.3-4.7a4.7 4.7 0 1 1-9.4 0 4.7 4.7 0 0 1 9.4 0Zm12.5 0a4.7 4.7 0 1 1-9.4 0 4.7 4.7 0 0 1 9.4 0Zm8 4.7a4.7 4.7 0 1 0 0-9.4 4.7 4.7 0 0 0 0 9.4Zm17.3-4.7a4.7 4.7 0 1 1-9.5 0 4.7 4.7 0 0 1 9.5 0Zm7.9 4.7a4.7 4.7 0 1 0 0-9.4 4.7 4.7 0 0 0 0 9.4Zm17.3-4.7a4.7 4.7 0 1 1-9.5 0 4.7 4.7 0 0 1 9.5 0Zm12.6 0a4.7 4.7 0 1 1-9.5 0 4.7 4.7 0 0 1 9.5 0Zm12.6 0a4.7 4.7 0 1 1-9.5 0 4.7 4.7 0 0 1 9.5 0Zm12.6 0a4.7 4.7 0 1 1-9.5 0 4.7 4.7 0 0 1 9.5 0Zm7.9 4.7a4.7 4.7 0 1 0 0-9.4 4.7 4.7 0 0 0 0 9.4Zm17.3-4.7a4.7 4.7 0 1 1-9.5 0 4.7 4.7 0 0 1 9.5 0Zm12.6 0a4.7 4.7 0 1 1-9.5 0 4.7 4.7 0 0 1 9.5 0Zm12.6 0a4.7 4.7 0 1 1-9.5 0 4.7 4.7 0 0 1 9.5 0Zm12.6 0a4.7 4.7 0 1 1-9.5 0 4.7 4.7 0 0 1 9.5 0Zm7.8 4.7a4.7 4.7 0 1 0 0-9.4 4.7 4.7 0 0 0 0 9.4Zm17.4-4.7a4.7 4.7 0 1 1-9.5 0 4.7 4.7 0 0 1 9.5 0Zm7.8 4.7a4.7 4.7 0 1 0 0-9.4 4.7 4.7 0 0 0 0 9.4Zm17.4-4.7a4.7 4.7 0 1 1-9.5 0 4.7 4.7 0 0 1 9.5 0Zm12.6 0a4.7 4.7 0 1 1-9.5 0 4.7 4.7 0 0 1 9.5 0Zm7.8 4.7a4.7 4.7 0 1 0 0-9.4 4.7 4.7 0 0 0 0 9.4Zm17.4-4.7a4.7 4.7 0 1 1-9.5 0 4.7 4.7 0 0 1 9.5 0Zm7.8 4.7a4.7 4.7 0 1 0 0-9.4 4.7 4.7 0 0 0 0 9.4Zm17.4-4.7a4.7 4.7 0 1 1-9.5 0 4.7 4.7 0 0 1 9.5 0Zm12.4 0a4.7 4.7 0 1 1-9.4 0 4.7 4.7 0 0 1 9.4 0Zm8 4.7a4.7 4.7 0 1 0 0-9.4 4.7 4.7 0 0 0 0 9.4Zm17.4-4.7a4.7 4.7 0 1 1-9.5 0 4.7 4.7 0 0 1 9.5 0Zm7.8 4.7a4.7 4.7 0 1 0 0-9.4 4.7 4.7 0 0 0 0 9.4Zm17.4-4.7a4.7 4.7 0 1 1-9.5 0 4.7 4.7 0 0 1 9.4 0Zm12.5 0a4.7 4.7 0 1 1-9.4 0 4.7 4.7 0 0 1 9.4 0Zm7.9 4.7a4.7 4.7 0 1 0 0-9.4 4.7 4.7 0 0 0 0 9.4Zm55.1-4.7a4.7 4.7 0 0 1-5.6 4.6 4.7 4.7 0 0 1-3.7-3.7 4.7 4.7 0 0 1 2-4.8 4.7 4.7 0 0 1 6 .6 4.6 4.6 0 0 1 1.3 3.3Zm7.9 4.7a4.7 4.7 0 1 0 0-9.4 4.7 4.7 0 0 0 0 9.4ZM85 118.1a4.7 4.7 0 1 1-9.4.1 4.7 4.7 0 0 1 9.4-.1Zm12.7 0a4.7 4.7 0 1 1-9.5.2 4.7 4.7 0 0 1 9.5-.2Zm12.6 0a4.7 4.7 0 1 1-9.5.1 4.7 4.7 0 0 1 9.5-.1Zm12.6 0a4.7 4.7 0 1 1-9.5.2 4.7 4.7 0 0 1 9.5-.2Zm12.6 0a4.7 4.7 0 1 1-9.5.2 4.7 4.7 0 0 1 9.5-.2Zm12.5 0a4.7 4.7 0 1 1-9.4.1 4.7 4.7 0 0 1 9.5-.1Zm12.7 0a4.7 4.7 0 1 1-9.5.2 4.7 4.7 0 0 1 9.5-.2Zm12.5 0a4.7 4.7 0 0 1-8 3.4 4.7 4.7 0 1 1 8-3.4Zm12.7 0a4.7 4.7 0 1 1-9.5 0 4.7 4.7 0 0 1 9.5 0Zm12.6 0a4.7 4.7 0 1 1-9.5 0 4.7 4.7 0 0 1 9.5 0Zm12.5 0a4.7 4.7 0 1 1-9.4 0 4.7 4.7 0 0 1 9.4 0Zm12.7 0a4.7 4.7 0 1 1-9.5 0 4.7 4.7 0 0 1 9.5 0Zm12.5 0a4.7 4.7 0 1 1-9.4 0 4.7 4.7 0 0 1 9.4 0Zm12.6 0a4.7 4.7 0 1 1-9.4 0 4.7 4.7 0 0 1 9.4 0Zm12.6 0a4.7 4.7 0 1 1-9.4 0 4.7 4.7 0 0 1 9.4 0Zm12.6 0a4.7 4.7 0 1 1-9.4 0 4.7 4.7 0 0 1 9.4 0Zm12.6 0a4.7 4.7 0 1 1-9.4 0 4.7 4.7 0 0 1 9.4 0Zm12.6 0a4.7 4.7 0 1 1-9.4.1 4.7 4.7 0 0 1 9.4-.1Zm12.6 0a4.7 4.7 0 1 1-9.4.2 4.7 4.7 0 0 1 9.4-.2Zm12.6 0a4.7 4.7 0 1 1-9.4.1 4.7 4.7 0 0 1 9.4-.1Zm12.6 0a4.7 4.7 0 1 1-9.4.1 4.7 4.7 0 0 1 9.4-.1Zm151.2 0a4.7 4.7 0 1 1-9.4 0 4.7 4.7 0 0 1 9.4 0Zm25.2 0a4.7 4.7 0 1 1-9.4 0 4.7 4.7 0 0 1 9.4 0Zm12.6 0a4.7 4.7 0 1 1-9.4 0 4.7 4.7 0 0 1 9.4 0Zm12.6 0a4.7 4.7 0 1 1-9.5 0 4.7 4.7 0 0 1 9.5 0Zm12.6 0a4.7 4.7 0 1 1-9.4 0 4.7 4.7 0 0 1 9.4 0Zm12.6 0a4.7 4.7 0 1 1-9.5 0 4.7 4.7 0 0 1 9.5 0Zm12.6 0a4.7 4.7 0 1 1-9.4 0 4.7 4.7 0 0 1 9.4 0Zm12.6 0a4.7 4.7 0 1 1-9.4.1 4.7 4.7 0 0 1 9.4-.1Zm12.6 0a4.8 4.8 0 1 1-9.5.2 4.8 4.8 0 0 1 9.5-.2Zm12.6 0a4.7 4.7 0 1 1-9.4 0 4.7 4.7 0 0 1 9.4 0Zm12.6 0a4.7 4.7 0 1 1-9.5.2 4.7 4.7 0 0 1 9.5-.2Zm12.5 0a4.7 4.7 0 1 1-9.4 0 4.7 4.7 0 0 1 9.4 0Zm12.7 0a4.7 4.7 0 1 1-9.4 0 4.7 4.7 0 0 1 9.4 0Zm12.6 0a4.7 4.7 0 1 1-9.5 0 4.7 4.7 0 0 1 9.5 0Zm12.6 0a4.7 4.7 0 1 1-9.4 0 4.7 4.7 0 0 1 9.4 0Zm12.6 0a4.7 4.7 0 1 1-9.5 0 4.7 4.7 0 0 1 9.5 0Zm12.6 0a4.7 4.7 0 1 1-9.5 0 4.7 4.7 0 0 1 9.5 0Zm12.6 0a4.7 4.7 0 1 1-9.5 0 4.7 4.7 0 0 1 9.5 0Zm12.6 0a4.7 4.7 0 1 1-9.5 0 4.7 4.7 0 0 1 9.5 0Zm12.6 0a4.7 4.7 0 1 1-9.5 0 4.7 4.7 0 0 1 9.5 0Zm12.6 0a4.7 4.7 0 1 1-9.5 0 4.7 4.7 0 0 1 9.5 0Zm12.6 0a4.7 4.7 0 1 1-9.5.1 4.7 4.7 0 0 1 9.5-.1Zm12.6 0a4.7 4.7 0 1 1-9.5 0 4.7 4.7 0 0 1 9.5 0Zm12.6 0a4.7 4.7 0 1 1-9.5 0 4.7 4.7 0 0 1 9.5 0Zm12.6 0a4.7 4.7 0 1 1-9.5 0 4.7 4.7 0 0 1 9.5 0Zm12.6 0a4.7 4.7 0 1 1-9.5 0 4.7 4.7 0 0 1 9.5 0Zm12.6 0a4.7 4.7 0 1 1-9.5 0 4.7 4.7 0 0 1 9.5 0Zm12.6 0a4.7 4.7 0 1 1-9.5 0 4.7 4.7 0 0 1 9.5 0Zm12.6 0a4.7 4.7 0 1 1-9.5 0 4.7 4.7 0 0 1 9.5 0Zm12.6 0a4.7 4.7 0 1 1-9.5.1 4.7 4.7 0 0 1 9.5-.1Zm12.6 0a4.7 4.7 0 1 1-9.5.2 4.7 4.7 0 0 1 9.5-.2Zm12.7 0a4.7 4.7 0 1 1-9.5 0 4.7 4.7 0 0 1 9.5 0Zm12.5 0a4.7 4.7 0 1 1-9.5 0 4.7 4.7 0 0 1 9.5 0Zm12.4 0a4.7 4.7 0 1 1-9.4 0 4.7 4.7 0 0 1 9.4 0Zm12.7 0a4.7 4.7 0 1 1-9.4.1 4.7 4.7 0 0 1 9.4-.1Zm12.7 0a4.7 4.7 0 1 1-9.5 0 4.7 4.7 0 0 1 9.5 0Zm12.5 0a4.7 4.7 0 1 1-9.4 0 4.7 4.7 0 0 1 9.4 0Zm12.7 0a4.7 4.7 0 1 1-9.5 0 4.7 4.7 0 0 1 9.4 0Zm12.5 0a4.7 4.7 0 1 1-9.4 0 4.7 4.7 0 0 1 9.4 0Zm12.6 0a4.7 4.7 0 1 1-9.4 0 4.7 4.7 0 0 1 9.4 0Zm12.7 0a4.8 4.8 0 0 1-5.7 4.7 4.7 4.7 0 1 1 5.6-4.7ZM85 130.7a4.7 4.7 0 1 1-9.4-.1 4.7 4.7 0 0 1 9.4.1Zm12.7 0a4.7 4.7 0 1 1-9.5 0 4.7 4.7 0 0 1 9.5 0Zm12.6 0a4.7 4.7 0 1 1-9.5-.1 4.7 4.7 0 0 1 9.5.1Zm7.8 4.7a4.7 4.7 0 1 0 0-9.4 4.7 4.7 0 0 0 0 9.4Zm17.4-4.7a4.7 4.7 0 1 1-9.5 0 4.7 4.7 0 0 1 9.5 0Zm7.8 4.7a4.7 4.7 0 1 0 0-9.4 4.7 4.7 0 0 0 0 9.4Zm17.4-4.7a4.7 4.7 0 1 1-9.5 0 4.7 4.7 0 0 1 9.5 0Zm12.5 0a4.7 4.7 0 1 1-9.4-.1 4.7 4.7 0 0 1 9.4.1Zm7.9 4.7a4.7 4.7 0 1 0 0-9.4 4.7 4.7 0 0 0 0 9.4Zm17.4-4.7a4.7 4.7 0 1 1-9.5 0 4.7 4.7 0 0 1 9.5 0Zm7.8 4.7a4.7 4.7 0 1 0 0-9.4 4.7 4.7 0 0 0 0 9.4Zm17.4-4.7a4.7 4.7 0 1 1-9.5 0 4.7 4.7 0 0 1 9.5 0Zm12.5 0a4.7 4.7 0 1 1-9.4 0 4.7 4.7 0 0 1 9.4 0Zm7.9 4.7a4.7 4.7 0 1 0 0-9.4 4.7 4.7 0 0 0 0 9.4Zm17.3-4.7a4.7 4.7 0 1 1-9.4 0 4.7 4.7 0 0 1 9.4 0Zm7.9 4.7a4.7 4.7 0 1 0 0-9.4 4.7 4.7 0 0 0 0 9.4Zm17.3-4.7a4.7 4.7 0 1 1-9.4 0 4.7 4.7 0 0 1 9.4 0Zm12.6 0a4.7 4.7 0 1 1-9.4-.1 4.7 4.7 0 0 1 9.4.1Zm25.2 0a4.7 4.7 0 1 1-9.4-.1 4.7 4.7 0 0 1 9.4.1Zm7.9 4.7a4.7 4.7 0 1 0 0-9.4 4.7 4.7 0 0 0 0 9.4Zm181.1-4.7a4.7 4.7 0 1 1-9.4 0 4.7 4.7 0 0 1 9.4 0Zm7.9 4.7a4.7 4.7 0 1 0 0-9.4 4.7 4.7 0 0 0 0 9.4Zm17.3-4.7a4.7 4.7 0 1 1-9.5 0 4.7 4.7 0 0 1 9.5 0Zm7.9 4.7a4.7 4.7 0 1 0 0-9.4 4.7 4.7 0 0 0 0 9.4Zm17.3-4.7a4.7 4.7 0 1 1-9.5 0 4.7 4.7 0 0 1 9.5 0Zm12.6 0a4.7 4.7 0 1 1-9.4 0 4.7 4.7 0 0 1 9.4 0Zm7.9 4.7a4.7 4.7 0 1 0 0-9.4 4.7 4.7 0 0 0 0 9.4Zm17.3-4.7a4.7 4.7 0 1 1-9.5 0 4.7 4.7 0 0 1 9.5 0Zm7.9 4.7a4.7 4.7 0 1 0 0-9.4 4.7 4.7 0 0 0 0 9.4Zm17.3-4.7a4.7 4.7 0 1 1-9.5 0 4.7 4.7 0 0 1 9.5 0Zm12.5 0a4.7 4.7 0 1 1-9.4 0 4.7 4.7 0 0 1 9.4 0Zm8 4.7a4.7 4.7 0 1 0 0-9.4 4.7 4.7 0 0 0 0 9.4Zm17.3-4.7a4.7 4.7 0 1 1-9.5 0 4.7 4.7 0 0 1 9.5 0Zm7.9 4.7a4.7 4.7 0 1 0 0-9.4 4.7 4.7 0 0 0 0 9.4Zm17.3-4.7a4.7 4.7 0 1 1-9.5 0 4.7 4.7 0 0 1 9.5 0Zm12.6 0a4.7 4.7 0 1 1-9.5 0 4.7 4.7 0 0 1 9.5 0Zm12.6 0a4.7 4.7 0 1 1-9.5 0 4.7 4.7 0 0 1 9.5 0Zm12.6 0a4.7 4.7 0 1 1-9.5 0 4.7 4.7 0 0 1 9.5 0Zm7.9 4.7a4.7 4.7 0 1 0 0-9.4 4.7 4.7 0 0 0 0 9.4Zm17.3-4.7a4.7 4.7 0 1 1-9.5 0 4.7 4.7 0 0 1 9.5 0Zm12.6 0a4.7 4.7 0 1 1-9.5-.1 4.7 4.7 0 0 1 9.5.1Zm12.6 0a4.7 4.7 0 1 1-9.5 0 4.7 4.7 0 0 1 9.5 0Zm12.6 0a4.7 4.7 0 1 1-9.5 0 4.7 4.7 0 0 1 9.5 0Zm7.8 4.7a4.7 4.7 0 1 0 0-9.4 4.7 4.7 0 0 0 0 9.4Zm17.4-4.7a4.7 4.7 0 1 1-9.5 0 4.7 4.7 0 0 1 9.5 0Zm7.8 4.7a4.7 4.7 0 1 0 0-9.4 4.7 4.7 0 0 0 0 9.4Zm17.4-4.7a4.7 4.7 0 1 1-9.5 0 4.7 4.7 0 0 1 9.5 0Zm12.6 0a4.7 4.7 0 1 1-9.5 0 4.7 4.7 0 0 1 9.5 0Zm7.8 4.7a4.7 4.7 0 1 0 0-9.4 4.7 4.7 0 0 0 0 9.4Zm17.4-4.7a4.7 4.7 0 1 1-9.5 0 4.7 4.7 0 0 1 9.5 0Zm7.8 4.7a4.7 4.7 0 1 0 0-9.4 4.7 4.7 0 0 0 0 9.4Zm17.4-4.7a4.7 4.7 0 1 1-9.5 0 4.7 4.7 0 0 1 9.5 0Zm12.4 0a4.7 4.7 0 1 1-9.4 0 4.7 4.7 0 0 1 9.4 0Zm8 4.7a4.7 4.7 0 1 0 0-9.4 4.7 4.7 0 0 0 0 9.4Zm17.4-4.7a4.7 4.7 0 1 1-9.5 0 4.7 4.7 0 0 1 9.5 0Zm7.8 4.7a4.7 4.7 0 1 0 0-9.4 4.7 4.7 0 0 0 0 9.4Zm17.4-4.7a4.7 4.7 0 1 1-9.5 0 4.7 4.7 0 0 1 9.4 0Zm12.5 0a4.7 4.7 0 1 1-9.4 0 4.7 4.7 0 0 1 9.4 0Zm7.9 4.7a4.7 4.7 0 1 0 0-9.4 4.7 4.7 0 0 0 0 9.4Zm17.4-4.7a4.8 4.8 0 0 1-5.7 4.7 4.7 4.7 0 1 1 5.6-4.7Zm7.8 4.7a4.7 4.7 0 1 0 0-9.4 4.7 4.7 0 0 0 0 9.4Zm-927.6 8a4.7 4.7 0 1 1-9.4 0 4.7 4.7 0 0 1 9.4 0Zm12.7 0a4.7 4.7 0 1 1-9.5 0 4.7 4.7 0 0 1 9.5 0Zm12.6 0a4.7 4.7 0 1 1-9.5 0 4.7 4.7 0 0 1 9.5 0Zm12.6 0a4.7 4.7 0 1 1-9.5 0 4.7 4.7 0 0 1 9.5 0Zm12.6 0a4.7 4.7 0 1 1-9.5 0 4.7 4.7 0 0 1 9.5 0Zm12.5 0a4.7 4.7 0 1 1-9.4 0 4.7 4.7 0 0 1 9.5 0Zm12.7 0a4.7 4.7 0 1 1-9.5 0 4.7 4.7 0 0 1 9.5 0Zm12.5 0a4.7 4.7 0 1 1-9.4 0 4.7 4.7 0 0 1 9.4 0Zm12.7 0a4.7 4.7 0 1 1-9.5 0 4.7 4.7 0 0 1 9.5 0Zm12.6 0a4.7 4.7 0 1 1-9.5 0 4.7 4.7 0 0 1 9.5 0Zm12.5 0a4.7 4.7 0 1 1-9.4 0 4.7 4.7 0 0 1 9.4 0Zm12.7 0a4.7 4.7 0 1 1-9.5 0 4.7 4.7 0 0 1 9.5 0Zm12.5 0a4.7 4.7 0 1 1-9.4 0 4.7 4.7 0 0 1 9.4 0Zm12.6 0a4.7 4.7 0 1 1-9.4 0 4.7 4.7 0 0 1 9.4 0Zm12.6 0a4.7 4.7 0 1 1-9.4 0 4.7 4.7 0 0 1 9.4 0Zm12.6 0a4.7 4.7 0 1 1-9.4 0 4.7 4.7 0 0 1 9.4 0Zm12.6 0a4.7 4.7 0 1 1-9.4 0 4.7 4.7 0 0 1 9.4 0Zm12.6 0a4.7 4.7 0 1 1-9.4 0 4.7 4.7 0 0 1 9.4 0Zm226.8 0a4.7 4.7 0 1 1-9.4 0 4.7 4.7 0 0 1 9.4 0Zm12.6 0a4.7 4.7 0 1 1-9.5 0 4.7 4.7 0 0 1 9.5 0Zm12.6 0a4.7 4.7 0 1 1-9.4 0 4.7 4.7 0 0 1 9.4 0Zm12.6 0a4.7 4.7 0 1 1-9.5 0 4.7 4.7 0 0 1 9.5 0Zm12.6 0a4.7 4.7 0 1 1-9.4 0 4.7 4.7 0 0 1 9.4 0Zm12.6 0a4.7 4.7 0 1 1-9.5 0 4.7 4.7 0 0 1 9.5 0Zm12.6 0a4.7 4.7 0 1 1-9.5 0 4.7 4.7 0 0 1 9.5 0Zm12.6 0a4.7 4.7 0 1 1-9.4 0 4.7 4.7 0 0 1 9.4 0Zm50.4 0a4.7 4.7 0 1 1-9.5 0 4.7 4.7 0 0 1 9.5 0Zm12.6 0a4.7 4.7 0 1 1-9.5 0 4.7 4.7 0 0 1 9.5 0Zm37.8 0a4.7 4.7 0 1 1-9.5 0 4.7 4.7 0 0 1 9.5 0Zm12.6 0a4.7 4.7 0 1 1-9.5 0 4.7 4.7 0 0 1 9.5 0Zm12.6 0a4.7 4.7 0 1 1-9.5 0 4.7 4.7 0 0 1 9.5 0Zm12.6 0a4.7 4.7 0 1 1-9.5 0 4.7 4.7 0 0 1 9.5 0Zm12.6 0a4.7 4.7 0 1 1-9.5 0 4.7 4.7 0 0 1 9.5 0Zm12.6 0a4.7 4.7 0 1 1-9.5 0 4.7 4.7 0 0 1 9.5 0Zm12.6 0a4.7 4.7 0 1 1-9.5 0 4.7 4.7 0 0 1 9.5 0Zm12.6 0a4.7 4.7 0 1 1-9.5 0 4.7 4.7 0 0 1 9.5 0Zm12.6 0a4.7 4.7 0 1 1-9.5 0 4.7 4.7 0 0 1 9.5 0Zm12.6 0a4.7 4.7 0 1 1-9.5 0 4.7 4.7 0 0 1 9.5 0Zm12.6 0a4.7 4.7 0 1 1-9.5 0 4.7 4.7 0 0 1 9.5 0Zm12.6 0a4.7 4.7 0 1 1-9.5 0 4.7 4.7 0 0 1 9.5 0Zm12.6 0a4.7 4.7 0 1 1-9.5 0 4.7 4.7 0 0 1 9.5 0Zm12.6 0a4.7 4.7 0 1 1-9.5 0 4.7 4.7 0 0 1 9.5 0Zm12.7 0a4.7 4.7 0 1 1-9.5 0 4.7 4.7 0 0 1 9.5 0Zm12.5 0a4.7 4.7 0 1 1-9.5 0 4.7 4.7 0 0 1 9.5 0Zm12.4 0a4.7 4.7 0 1 1-9.4 0 4.7 4.7 0 0 1 9.4 0Zm12.7 0a4.7 4.7 0 1 1-9.4 0 4.7 4.7 0 0 1 9.4 0Zm12.7 0a4.7 4.7 0 1 1-9.5 0 4.7 4.7 0 0 1 9.5 0Zm12.5 0a4.7 4.7 0 1 1-9.4 0 4.7 4.7 0 0 1 9.4 0Zm12.7 0a4.7 4.7 0 1 1-9.5 0 4.7 4.7 0 0 1 9.4 0Zm12.5 0a4.7 4.7 0 1 1-9.4 0 4.7 4.7 0 0 1 9.4 0Zm12.6 0a4.7 4.7 0 1 1-9.4 0 4.7 4.7 0 0 1 9.4 0Zm25.2 0a4.7 4.7 0 0 1-9.3 1 4.7 4.7 0 1 1 9.3-1Zm12.7 0a4.8 4.8 0 0 1-3 4.4 4.7 4.7 0 0 1-6.2-6.2 4.7 4.7 0 0 1 4.4-3 4.7 4.7 0 0 1 4.7 4.8ZM72.6 155.9a4.7 4.7 0 1 1-9.5 0 4.7 4.7 0 0 1 9.5 0Zm12.4 0a4.7 4.7 0 1 1-9.4 0 4.7 4.7 0 0 1 9.4 0Zm12.7 0a4.7 4.7 0 1 1-9.5 0 4.7 4.7 0 0 1 9.5 0Zm12.6 0a4.7 4.7 0 1 1-9.5 0 4.7 4.7 0 0 1 9.5 0Zm7.8 4.7a4.7 4.7 0 1 0 0-9.4 4.7 4.7 0 0 0 0 9.4Zm17.4-4.7a4.7 4.7 0 1 1-9.5 0 4.7 4.7 0 0 1 9.5 0Zm7.8 4.7a4.7 4.7 0 1 0 0-9.4 4.7 4.7 0 0 0 0 9.4Zm17.4-4.7a4.7 4.7 0 1 1-9.5 0 4.7 4.7 0 0 1 9.5 0Zm12.5 0a4.7 4.7 0 1 1-9.4 0 4.7 4.7 0 0 1 9.4 0Zm7.9 4.7a4.7 4.7 0 1 0 0-9.4 4.7 4.7 0 0 0 0 9.4Zm17.4-4.7a4.7 4.7 0 1 1-9.5 0 4.7 4.7 0 0 1 9.5 0Zm7.8 4.7a4.7 4.7 0 1 0 0-9.4 4.7 4.7 0 0 0 0 9.4Zm17.4-4.7a4.7 4.7 0 1 1-9.5 0 4.7 4.7 0 0 1 9.5 0Zm12.5 0a4.7 4.7 0 1 1-9.4 0 4.7 4.7 0 0 1 9.4 0Zm7.9 4.7a4.7 4.7 0 1 0 0-9.4 4.7 4.7 0 0 0 0 9.4Zm17.3-4.7a4.7 4.7 0 1 1-9.4 0 4.7 4.7 0 0 1 9.4 0Zm222.1 4.7a4.7 4.7 0 1 0 0-9.4 4.7 4.7 0 0 0 0 9.4Zm17.3-4.7a4.7 4.7 0 1 1-9.5 0 4.7 4.7 0 0 1 9.5 0Zm12.6 0a4.7 4.7 0 1 1-9.4 0 4.7 4.7 0 0 1 9.4 0Zm7.9 4.7a4.7 4.7 0 1 0 0-9.4 4.7 4.7 0 0 0 0 9.4Zm55.1-4.7a4.7 4.7 0 1 1-9.4 0 4.7 4.7 0 0 1 9.4 0Zm7.9 4.7a4.7 4.7 0 1 0 0-9.4 4.7 4.7 0 0 0 0 9.4Zm17.3-4.7a4.7 4.7 0 1 1-9.5 0 4.7 4.7 0 0 1 9.5 0Zm7.9 4.7a4.7 4.7 0 1 0 0-9.4 4.7 4.7 0 0 0 0 9.4Zm63 0a4.7 4.7 0 1 0 0-9.4 4.7 4.7 0 0 0 0 9.4Zm17.3-4.7a4.7 4.7 0 1 1-9.5 0 4.7 4.7 0 0 1 9.5 0Zm25.2 0a4.7 4.7 0 1 1-9.5 0 4.7 4.7 0 0 1 9.5 0Zm12.6 0a4.7 4.7 0 1 1-9.5 0 4.7 4.7 0 0 1 9.5 0Zm7.9 4.7a4.7 4.7 0 1 0 0-9.4 4.7 4.7 0 0 0 0 9.4Zm17.3-4.7a4.7 4.7 0 1 1-9.5 0 4.7 4.7 0 0 1 9.5 0Zm12.6 0a4.7 4.7 0 1 1-9.5 0 4.7 4.7 0 0 1 9.5 0Zm12.6 0a4.7 4.7 0 1 1-9.5 0 4.7 4.7 0 0 1 9.5 0Zm12.6 0a4.7 4.7 0 1 1-9.5 0 4.7 4.7 0 0 1 9.5 0Zm7.8 4.7a4.7 4.7 0 1 0 0-9.4 4.7 4.7 0 0 0 0 9.4Zm17.4-4.7a4.7 4.7 0 1 1-9.5 0 4.7 4.7 0 0 1 9.5 0Zm7.8 4.7a4.7 4.7 0 1 0 0-9.4 4.7 4.7 0 0 0 0 9.4Zm17.4-4.7a4.7 4.7 0 1 1-9.5 0 4.7 4.7 0 0 1 9.5 0Zm12.6 0a4.7 4.7 0 1 1-9.5 0 4.7 4.7 0 0 1 9.5 0Zm7.8 4.7a4.7 4.7 0 1 0 0-9.4 4.7 4.7 0 0 0 0 9.4Zm17.4-4.7a4.7 4.7 0 1 1-9.5 0 4.7 4.7 0 0 1 9.5 0Zm7.8 4.7a4.7 4.7 0 1 0 0-9.4 4.7 4.7 0 0 0 0 9.4Zm17.4-4.7a4.7 4.7 0 1 1-9.5 0 4.7 4.7 0 0 1 9.5 0Zm12.4 0a4.7 4.7 0 1 1-9.4 0 4.7 4.7 0 0 1 9.4 0Zm8 4.7a4.7 4.7 0 1 0 0-9.4 4.7 4.7 0 0 0 0 9.4Zm17.4-4.7a4.7 4.7 0 1 1-9.5 0 4.7 4.7 0 0 1 9.5 0Zm7.8 4.7a4.7 4.7 0 1 0 0-9.4 4.7 4.7 0 0 0 0 9.4Zm17.4-4.7a4.7 4.7 0 1 1-9.5 0 4.7 4.7 0 0 1 9.4 0Zm12.5 0a4.7 4.7 0 1 1-9.4 0 4.7 4.7 0 0 1 9.4 0Zm50.5 0a4.8 4.8 0 0 1-3 4.4 4.7 4.7 0 0 1-4.4-8.3 4.7 4.7 0 0 1 6 .6c.8.8 1.3 2 1.3 3.3ZM72.6 168.5a4.7 4.7 0 1 1-9.5 0 4.7 4.7 0 0 1 9.5 0Zm12.4 0a4.7 4.7 0 1 1-9.4 0 4.7 4.7 0 0 1 9.4 0Zm12.7 0a4.7 4.7 0 1 1-9.5 0 4.7 4.7 0 0 1 9.5 0Zm12.6 0a4.7 4.7 0 1 1-9.5 0 4.7 4.7 0 0 1 9.5 0Zm12.6 0a4.7 4.7 0 1 1-9.5 0 4.7 4.7 0 0 1 9.5 0Zm12.6 0a4.7 4.7 0 1 1-9.5 0 4.7 4.7 0 0 1 9.5 0Zm12.5 0a4.7 4.7 0 1 1-9.4 0 4.7 4.7 0 0 1 9.5 0Zm12.7 0a4.7 4.7 0 1 1-9.5 0 4.7 4.7 0 0 1 9.5 0Zm12.5 0a4.7 4.7 0 1 1-9.4 0 4.7 4.7 0 0 1 9.4 0Zm12.7 0a4.7 4.7 0 1 1-9.5 0 4.7 4.7 0 0 1 9.5 0Zm12.6 0a4.7 4.7 0 1 1-9.5 0 4.7 4.7 0 0 1 9.5 0Zm12.5 0a4.7 4.7 0 1 1-9.4 0 4.7 4.7 0 0 1 9.4 0Zm12.7 0a4.7 4.7 0 1 1-9.5 0 4.7 4.7 0 0 1 9.5 0Zm12.5 0a4.7 4.7 0 1 1-9.4 0 4.7 4.7 0 0 1 9.4 0Zm12.6 0a4.7 4.7 0 1 1-9.4 0 4.7 4.7 0 0 1 9.4 0Zm239.4 0a4.7 4.7 0 1 1-9.4 0 4.7 4.7 0 0 1 9.4 0Zm12.6 0a4.7 4.7 0 1 1-9.5 0 4.7 4.7 0 0 1 9.5 0Zm12.6 0a4.7 4.7 0 0 1-8 3.3 4.7 4.7 0 1 1 8-3.3Zm88.2 0a4.7 4.7 0 1 1-9.5 0 4.7 4.7 0 0 1 9.5 0Zm25.2 0a4.7 4.7 0 1 1-9.5 0 4.7 4.7 0 0 1 9.5 0Zm12.5 0a4.7 4.7 0 1 1-9.4 0 4.7 4.7 0 0 1 9.4 0Zm12.7 0a4.7 4.7 0 1 1-9.5 0 4.7 4.7 0 0 1 9.5 0Zm12.6 0a4.7 4.7 0 1 1-9.5 0 4.7 4.7 0 0 1 9.5 0Zm12.6 0a4.7 4.7 0 1 1-9.4 0 4.7 4.7 0 0 1 9.4 0Zm12.6 0a4.7 4.7 0 1 1-9.5 0 4.7 4.7 0 0 1 9.5 0Zm37.8 0a4.7 4.7 0 1 1-9.5 0 4.7 4.7 0 0 1 9.5 0Zm12.6 0a4.7 4.7 0 1 1-9.5 0 4.7 4.7 0 0 1 9.5 0Zm12.6 0a4.7 4.7 0 1 1-9.5 0 4.7 4.7 0 0 1 9.5 0Zm12.6 0a4.7 4.7 0 1 1-9.5 0 4.7 4.7 0 0 1 9.5 0Zm12.6 0a4.7 4.7 0 1 1-9.5 0 4.7 4.7 0 0 1 9.5 0Zm12.6 0a4.7 4.7 0 1 1-9.5 0 4.7 4.7 0 0 1 9.5 0Zm12.6 0a4.7 4.7 0 1 1-9.5 0 4.7 4.7 0 0 1 9.5 0Zm12.6 0a4.7 4.7 0 1 1-9.5 0 4.7 4.7 0 0 1 9.5 0Zm12.6 0a4.7 4.7 0 0 1-8.1 3.3 4.7 4.7 0 1 1 8-3.3Zm12.6 0a4.7 4.7 0 1 1-9.5 0 4.7 4.7 0 0 1 9.5 0Zm12.6 0a4.7 4.7 0 1 1-9.5 0 4.7 4.7 0 0 1 9.5 0Zm12.6 0a4.7 4.7 0 1 1-9.5 0 4.7 4.7 0 0 1 9.5 0Zm12.6 0a4.7 4.7 0 1 1-9.5 0 4.7 4.7 0 0 1 9.5 0Zm12.7 0a4.7 4.7 0 1 1-9.5 0 4.7 4.7 0 0 1 9.5 0Zm12.5 0a4.7 4.7 0 1 1-9.5 0 4.7 4.7 0 0 1 9.5 0Zm12.4 0a4.7 4.7 0 1 1-9.4 0 4.7 4.7 0 0 1 9.4 0Zm12.7 0a4.7 4.7 0 1 1-9.4 0 4.7 4.7 0 0 1 9.4 0Zm12.7 0a4.7 4.7 0 1 1-9.5 0 4.7 4.7 0 0 1 9.5 0Zm12.5 0a4.7 4.7 0 1 1-9.4 0 4.7 4.7 0 0 1 9.4 0Zm12.7 0a4.7 4.7 0 1 1-9.5 0 4.7 4.7 0 0 1 9.4 0Zm12.5 0a4.7 4.7 0 1 1-9.4 0 4.7 4.7 0 0 1 9.4 0Zm50.5 0a4.8 4.8 0 0 1-5.7 4.7 4.8 4.8 0 0 1-3.8-3.8 4.8 4.8 0 0 1 4.7-5.6 4.7 4.7 0 0 1 4.7 4.7ZM72.6 181a4.7 4.7 0 1 1-9.5.1 4.7 4.7 0 0 1 9.5 0Zm12.4 0a4.7 4.7 0 1 1-9.4 0 4.7 4.7 0 0 1 9.4 0Zm12.7 0a4.7 4.7 0 1 1-9.5.1 4.7 4.7 0 0 1 9.5 0Zm12.6 0a4.7 4.7 0 1 1-9.5 0 4.7 4.7 0 0 1 9.5 0Zm12.6 0a4.7 4.7 0 1 1-9.5.1 4.7 4.7 0 0 1 9.5 0Zm12.6 0a4.7 4.7 0 1 1-9.5.1 4.7 4.7 0 0 1 9.5 0Zm12.5 0a4.7 4.7 0 1 1-9.4 0 4.7 4.7 0 0 1 9.5 0Zm12.7 0a4.7 4.7 0 1 1-9.5.1 4.7 4.7 0 0 1 9.5 0Zm12.5 0a4.7 4.7 0 1 1-9.4 0 4.7 4.7 0 0 1 9.4 0Zm12.7 0a4.7 4.7 0 1 1-9.5.1 4.7 4.7 0 0 1 9.5 0Zm12.6 0a4.7 4.7 0 1 1-9.5.1 4.7 4.7 0 0 1 9.5 0Zm12.5 0a4.7 4.7 0 1 1-9.4 0 4.7 4.7 0 0 1 9.4 0Zm12.7 0a4.7 4.7 0 1 1-9.5.1 4.7 4.7 0 0 1 9.5 0Zm12.5 0a4.7 4.7 0 1 1-9.4 0 4.7 4.7 0 0 1 9.4 0Zm264.6 0a4.7 4.7 0 1 1-9.5.1 4.7 4.7 0 0 1 9.5 0Zm12.6 0a4.7 4.7 0 1 1-9.4 0 4.7 4.7 0 0 1 9.4 0Zm12.6 0a4.7 4.7 0 1 1-9.4 0 4.7 4.7 0 0 1 9.4 0Zm12.6 0a4.7 4.7 0 1 1-9.5.1 4.7 4.7 0 0 1 9.5 0Zm12.6 0a4.7 4.7 0 1 1-9.4 0 4.7 4.7 0 0 1 9.4 0Zm75.6 0a4.7 4.7 0 1 1-9.5.1 4.7 4.7 0 0 1 9.5 0Zm12.5 0a4.7 4.7 0 1 1-9.4 0 4.7 4.7 0 0 1 9.4 0Zm12.7 0a4.7 4.7 0 1 1-9.4 0 4.7 4.7 0 0 1 9.4 0Zm12.6 0a4.7 4.7 0 1 1-9.5.1 4.7 4.7 0 0 1 9.5 0Zm12.6 0a4.7 4.7 0 1 1-9.5 0 4.7 4.7 0 0 1 9.5 0Zm12.6 0a4.7 4.7 0 1 1-9.5.1 4.7 4.7 0 0 1 9.5 0Zm12.6 0a4.7 4.7 0 1 1-9.5 0 4.7 4.7 0 0 1 9.5 0Zm12.6 0a4.7 4.7 0 1 1-9.5.1 4.7 4.7 0 0 1 9.5 0Zm12.6 0a4.7 4.7 0 1 1-9.5.1 4.7 4.7 0 0 1 9.5 0Zm12.6 0a4.7 4.7 0 1 1-9.5 0 4.7 4.7 0 0 1 9.5 0Zm12.6 0a4.7 4.7 0 1 1-9.5.1 4.7 4.7 0 0 1 9.5 0Zm12.6 0a4.7 4.7 0 1 1-9.5 0 4.7 4.7 0 0 1 9.5 0Zm12.6 0a4.7 4.7 0 1 1-9.5.1 4.7 4.7 0 0 1 9.5 0Zm12.6 0a4.7 4.7 0 1 1-9.5.1 4.7 4.7 0 0 1 9.5 0Zm12.6 0a4.7 4.7 0 1 1-9.5 0 4.7 4.7 0 0 1 9.5 0Zm12.6 0a4.7 4.7 0 1 1-9.5.1 4.7 4.7 0 0 1 9.5 0Zm12.6 0a4.7 4.7 0 1 1-9.5 0 4.7 4.7 0 0 1 9.5 0Zm12.6 0a4.7 4.7 0 1 1-9.5.1 4.7 4.7 0 0 1 9.5 0Zm12.6 0a4.7 4.7 0 1 1-9.5.1 4.7 4.7 0 0 1 9.5 0Zm12.6 0a4.7 4.7 0 1 1-9.5 0 4.7 4.7 0 0 1 9.5 0Zm12.6 0a4.7 4.7 0 1 1-9.5.1 4.7 4.7 0 0 1 9.5 0Zm12.7 0a4.7 4.7 0 1 1-9.5 0 4.7 4.7 0 0 1 9.5 0Zm12.5 0a4.7 4.7 0 1 1-9.5.1 4.7 4.7 0 0 1 9.5 0Zm12.4 0a4.7 4.7 0 1 1-9.4 0 4.7 4.7 0 0 1 9.4 0Zm12.7 0a4.7 4.7 0 1 1-9.4 0 4.7 4.7 0 0 1 9.4 0Zm12.7 0a4.7 4.7 0 1 1-9.5.1 4.7 4.7 0 0 1 9.5 0Zm12.5 0a4.7 4.7 0 1 1-9.4 0 4.7 4.7 0 0 1 9.4 0Zm12.7 0a4.7 4.7 0 1 1-9.5.1 4.7 4.7 0 0 1 9.4 0Zm25.1 0a4.7 4.7 0 1 1-9.4 0 4.7 4.7 0 0 1 9.4 0Zm37.9 0a4.8 4.8 0 0 1-3 4.5 4.7 4.7 0 0 1-6.2-6.2 4.7 4.7 0 0 1 4.4-3 4.7 4.7 0 0 1 4.7 4.8ZM85 193.7a4.7 4.7 0 1 1-9.4 0 4.7 4.7 0 0 1 9.4 0Zm12.7 0a4.7 4.7 0 1 1-9.5 0 4.7 4.7 0 0 1 9.5 0Zm12.6 0a4.7 4.7 0 1 1-9.5 0 4.7 4.7 0 0 1 9.5 0Zm12.6 0a4.7 4.7 0 1 1-9.5 0 4.7 4.7 0 0 1 9.5 0Zm12.6 0a4.7 4.7 0 1 1-9.5 0 4.7 4.7 0 0 1 9.5 0Zm12.5 0a4.7 4.7 0 1 1-9.4 0 4.7 4.7 0 0 1 9.5 0Zm12.7 0a4.7 4.7 0 1 1-9.5 0 4.7 4.7 0 0 1 9.5 0Zm12.5 0a4.7 4.7 0 1 1-9.4 0 4.7 4.7 0 0 1 9.4 0Zm12.7 0a4.7 4.7 0 1 1-9.5 0 4.7 4.7 0 0 1 9.5 0Zm12.6 0a4.7 4.7 0 1 1-9.5 0 4.7 4.7 0 0 1 9.5 0Zm12.5 0a4.7 4.7 0 1 1-9.4 0 4.7 4.7 0 0 1 9.4 0Zm12.7 0a4.7 4.7 0 1 1-9.5 0 4.7 4.7 0 0 1 9.5 0Zm277.1 0a4.7 4.7 0 1 1-9.5 0 4.7 4.7 0 0 1 9.5 0Zm12.6 0a4.7 4.7 0 1 1-9.4 0 4.7 4.7 0 0 1 9.4 0Zm12.6 0a4.7 4.7 0 1 1-9.4 0 4.7 4.7 0 0 1 9.4 0Zm12.6 0a4.7 4.7 0 1 1-9.5 0 4.7 4.7 0 0 1 9.5 0Zm12.6 0a4.7 4.7 0 1 1-9.4 0 4.7 4.7 0 0 1 9.4 0Zm12.6 0a4.7 4.7 0 1 1-9.5 0 4.7 4.7 0 0 1 9.5 0Zm88.2 0a4.7 4.7 0 1 1-9.4 0 4.7 4.7 0 0 1 9.4 0Zm12.6 0a4.7 4.7 0 1 1-9.5 0 4.7 4.7 0 0 1 9.5 0Zm12.6 0a4.7 4.7 0 1 1-9.4 0 4.7 4.7 0 0 1 9.4 0Zm12.6 0a4.7 4.7 0 1 1-9.5 0 4.7 4.7 0 0 1 9.5 0Zm12.6 0a4.7 4.7 0 1 1-9.5 0 4.7 4.7 0 0 1 9.5 0Zm12.6 0a4.7 4.7 0 1 1-9.5 0 4.7 4.7 0 0 1 9.5 0Zm12.6 0a4.7 4.7 0 1 1-9.5 0 4.7 4.7 0 0 1 9.5 0Zm12.6 0a4.7 4.7 0 1 1-9.5 0 4.7 4.7 0 0 1 9.5 0Zm12.6 0a4.7 4.7 0 1 1-9.5 0 4.7 4.7 0 0 1 9.5 0Zm12.6 0a4.7 4.7 0 1 1-9.5 0 4.7 4.7 0 0 1 9.5 0Zm12.6 0a4.7 4.7 0 1 1-9.5 0 4.7 4.7 0 0 1 9.5 0Zm12.6 0a4.7 4.7 0 1 1-9.5 0 4.7 4.7 0 0 1 9.5 0Zm12.6 0a4.7 4.7 0 1 1-9.5 0 4.7 4.7 0 0 1 9.5 0Zm12.6 0a4.7 4.7 0 1 1-9.5 0 4.7 4.7 0 0 1 9.5 0Zm12.6 0a4.7 4.7 0 1 1-9.5 0 4.7 4.7 0 0 1 9.5 0Zm12.6 0a4.7 4.7 0 1 1-9.5 0 4.7 4.7 0 0 1 9.5 0Zm12.6 0a4.7 4.7 0 1 1-9.5 0 4.7 4.7 0 0 1 9.5 0Zm12.6 0a4.7 4.7 0 1 1-9.5 0 4.7 4.7 0 0 1 9.5 0Zm12.6 0a4.7 4.7 0 1 1-9.5 0 4.7 4.7 0 0 1 9.5 0Zm12.7 0a4.7 4.7 0 1 1-9.5 0 4.7 4.7 0 0 1 9.5 0Zm12.5 0a4.7 4.7 0 1 1-9.5 0 4.7 4.7 0 0 1 9.5 0Zm12.4 0a4.7 4.7 0 1 1-9.4 0 4.7 4.7 0 0 1 9.4 0Zm12.7 0a4.7 4.7 0 1 1-9.4 0 4.7 4.7 0 0 1 9.4 0Zm12.7 0a4.7 4.7 0 1 1-9.5 0 4.7 4.7 0 0 1 9.5 0Zm12.5 0a4.7 4.7 0 1 1-9.4 0 4.7 4.7 0 0 1 9.4 0Zm12.7 0a4.7 4.7 0 1 1-9.5 0 4.7 4.7 0 0 1 9.4 0Zm37.8 0a4.8 4.8 0 0 1-5.7 4.7 4.7 4.7 0 1 1 5.6-4.7Zm12.5 0a4.7 4.7 0 0 1-8 3.3 4.7 4.7 0 0 1 .7-7.2 4.7 4.7 0 0 1 7.3 3.9ZM85 206.3a4.7 4.7 0 1 1-9.4 0 4.7 4.7 0 0 1 9.4 0Zm12.7 0a4.7 4.7 0 1 1-9.5 0 4.7 4.7 0 0 1 9.5 0Zm12.6 0a4.7 4.7 0 1 1-9.5 0 4.7 4.7 0 0 1 9.5 0Zm12.6 0a4.7 4.7 0 1 1-9.5 0 4.7 4.7 0 0 1 9.5 0Zm12.6 0a4.7 4.7 0 1 1-9.5 0 4.7 4.7 0 0 1 9.5 0Zm12.5 0a4.7 4.7 0 1 1-9.4 0 4.7 4.7 0 0 1 9.5 0Zm12.7 0a4.7 4.7 0 1 1-9.5 0 4.7 4.7 0 0 1 9.5 0Zm12.5 0a4.7 4.7 0 1 1-9.4 0 4.7 4.7 0 0 1 9.4 0Zm12.7 0a4.7 4.7 0 1 1-9.5 0 4.7 4.7 0 0 1 9.5 0Zm12.6 0a4.7 4.7 0 1 1-9.5 0 4.7 4.7 0 0 1 9.5 0Zm12.5 0a4.7 4.7 0 1 1-9.4 0 4.7 4.7 0 0 1 9.4 0Zm277.2 0a4.7 4.7 0 1 1-9.4 0 4.7 4.7 0 0 1 9.4 0Zm12.6 0a4.7 4.7 0 1 1-9.5 0 4.7 4.7 0 0 1 9.5 0Zm12.6 0a4.7 4.7 0 1 1-9.4 0 4.7 4.7 0 0 1 9.4 0Zm12.6 0a4.7 4.7 0 1 1-9.4 0 4.7 4.7 0 0 1 9.4 0Zm12.6 0a4.7 4.7 0 1 1-9.5 0 4.7 4.7 0 0 1 9.5 0Zm12.6 0a4.7 4.7 0 1 1-9.4 0 4.7 4.7 0 0 1 9.4 0Zm12.6 0a4.7 4.7 0 1 1-9.5 0 4.7 4.7 0 0 1 9.5 0Zm12.6 0a4.7 4.7 0 1 1-9.4 0 4.7 4.7 0 0 1 9.4 0Zm12.6 0a4.7 4.7 0 1 1-9.4 0 4.7 4.7 0 0 1 9.4 0Zm12.6 0a4.7 4.7 0 1 1-9.5 0 4.7 4.7 0 0 1 9.5 0Zm12.6 0a4.7 4.7 0 1 1-9.4 0 4.7 4.7 0 0 1 9.4 0Zm12.6 0a4.7 4.7 0 1 1-9.5 0 4.7 4.7 0 0 1 9.5 0Zm12.5 0a4.7 4.7 0 1 1-9.4 0 4.7 4.7 0 0 1 9.4 0Zm12.7 0a4.7 4.7 0 1 1-9.4 0 4.7 4.7 0 0 1 9.4 0Zm12.6 0a4.7 4.7 0 1 1-9.5 0 4.7 4.7 0 0 1 9.5 0Zm12.6 0a4.7 4.7 0 1 1-9.4 0 4.7 4.7 0 0 1 9.4 0Zm12.6 0a4.7 4.7 0 1 1-9.5 0 4.7 4.7 0 0 1 9.5 0Zm12.6 0a4.7 4.7 0 1 1-9.5 0 4.7 4.7 0 0 1 9.5 0Zm12.6 0a4.7 4.7 0 1 1-9.5 0 4.7 4.7 0 0 1 9.5 0Zm12.6 0a4.7 4.7 0 1 1-9.5 0 4.7 4.7 0 0 1 9.5 0Zm12.6 0a4.7 4.7 0 1 1-9.5 0 4.7 4.7 0 0 1 9.5 0Zm12.6 0a4.7 4.7 0 1 1-9.5 0 4.7 4.7 0 0 1 9.5 0Zm12.6 0a4.7 4.7 0 1 1-9.5 0 4.7 4.7 0 0 1 9.5 0Zm12.6 0a4.7 4.7 0 1 1-9.5 0 4.7 4.7 0 0 1 9.5 0Zm12.6 0a4.7 4.7 0 1 1-9.5 0 4.7 4.7 0 0 1 9.5 0Zm12.6 0a4.7 4.7 0 1 1-9.5 0 4.7 4.7 0 0 1 9.5 0Zm12.6 0a4.7 4.7 0 1 1-9.5 0 4.7 4.7 0 0 1 9.5 0Zm12.6 0a4.7 4.7 0 1 1-9.5 0 4.7 4.7 0 0 1 9.5 0Zm12.6 0a4.7 4.7 0 1 1-9.5 0 4.7 4.7 0 0 1 9.5 0Zm12.6 0a4.7 4.7 0 1 1-9.5 0 4.7 4.7 0 0 1 9.5 0Zm12.6 0a4.7 4.7 0 1 1-9.5 0 4.7 4.7 0 0 1 9.5 0Zm12.6 0a4.7 4.7 0 1 1-9.5 0 4.7 4.7 0 0 1 9.5 0Zm12.7 0a4.7 4.7 0 1 1-9.5 0 4.7 4.7 0 0 1 9.5 0Zm12.5 0a4.7 4.7 0 1 1-9.5 0 4.7 4.7 0 0 1 9.5 0Zm12.4 0a4.7 4.7 0 1 1-9.4 0 4.7 4.7 0 0 1 9.4 0Zm12.7 0a4.7 4.7 0 1 1-9.4 0 4.7 4.7 0 0 1 9.4 0Zm12.7 0a4.7 4.7 0 1 1-9.5 0 4.7 4.7 0 0 1 9.5 0Zm12.5 0a4.7 4.7 0 1 1-9.4 0 4.7 4.7 0 0 1 9.4 0Zm12.7 0a4.7 4.7 0 1 1-9.5 0 4.7 4.7 0 0 1 9.4 0Zm12.5 0a4.7 4.7 0 1 1-9.4 0 4.7 4.7 0 0 1 9.4 0ZM85 218.9a4.7 4.7 0 1 1-9.4 0 4.7 4.7 0 0 1 9.4 0Zm12.7 0a4.7 4.7 0 1 1-9.5 0 4.7 4.7 0 0 1 9.5 0Zm12.6 0a4.7 4.7 0 1 1-9.5 0 4.7 4.7 0 0 1 9.5 0Zm12.6 0a4.7 4.7 0 1 1-9.5 0 4.7 4.7 0 0 1 9.5 0Zm12.6 0a4.7 4.7 0 1 1-9.5 0 4.7 4.7 0 0 1 9.5 0Zm12.5 0a4.7 4.7 0 1 1-9.4 0 4.7 4.7 0 0 1 9.5 0Zm63 0a4.7 4.7 0 1 1-9.4 0 4.7 4.7 0 0 1 9.4 0Zm264.6 0a4.7 4.7 0 1 1-9.5 0 4.7 4.7 0 0 1 9.5 0Zm12.6 0a4.7 4.7 0 1 1-9.4 0 4.7 4.7 0 0 1 9.4 0Zm12.6 0a4.7 4.7 0 1 1-9.5 0 4.7 4.7 0 0 1 9.5 0Zm12.6 0a4.7 4.7 0 1 1-9.4 0 4.7 4.7 0 0 1 9.4 0Zm12.6 0a4.7 4.7 0 1 1-9.4 0 4.7 4.7 0 0 1 9.4 0Zm12.6 0a4.7 4.7 0 1 1-9.5 0 4.7 4.7 0 0 1 9.5 0Zm12.6 0a4.7 4.7 0 1 1-9.4 0 4.7 4.7 0 0 1 9.4 0Zm12.6 0a4.7 4.7 0 1 1-9.5 0 4.7 4.7 0 0 1 9.5 0Zm12.6 0a4.7 4.7 0 1 1-9.4 0 4.7 4.7 0 0 1 9.4 0Zm12.6 0a4.7 4.7 0 1 1-9.4 0 4.7 4.7 0 0 1 9.4 0Zm12.6 0a4.7 4.7 0 1 1-9.5 0 4.7 4.7 0 0 1 9.5 0Zm12.6 0a4.7 4.7 0 1 1-9.4 0 4.7 4.7 0 0 1 9.4 0Zm12.6 0a4.7 4.7 0 1 1-9.5 0 4.7 4.7 0 0 1 9.5 0Zm12.5 0a4.7 4.7 0 1 1-9.4 0 4.7 4.7 0 0 1 9.4 0Zm25.3 0a4.7 4.7 0 1 1-9.5 0 4.7 4.7 0 0 1 9.5 0Zm12.6 0a4.7 4.7 0 1 1-9.4 0 4.7 4.7 0 0 1 9.4 0Zm12.6 0a4.7 4.7 0 1 1-9.5 0 4.7 4.7 0 0 1 9.5 0Zm12.6 0a4.7 4.7 0 1 1-9.5 0 4.7 4.7 0 0 1 9.5 0Zm37.8 0a4.7 4.7 0 1 1-9.5 0 4.7 4.7 0 0 1 9.5 0Zm12.6 0a4.7 4.7 0 1 1-9.5 0 4.7 4.7 0 0 1 9.5 0Zm12.6 0a4.7 4.7 0 1 1-9.5 0 4.7 4.7 0 0 1 9.5 0Zm12.6 0a4.7 4.7 0 1 1-9.5 0 4.7 4.7 0 0 1 9.5 0Zm12.6 0a4.7 4.7 0 1 1-9.5 0 4.7 4.7 0 0 1 9.5 0Zm12.6 0a4.7 4.7 0 1 1-9.5 0 4.7 4.7 0 0 1 9.5 0Zm12.6 0a4.7 4.7 0 1 1-9.5 0 4.7 4.7 0 0 1 9.5 0Zm12.6 0a4.7 4.7 0 1 1-9.5 0 4.7 4.7 0 0 1 9.5 0Zm12.6 0a4.7 4.7 0 1 1-9.5 0 4.7 4.7 0 0 1 9.5 0Zm12.6 0a4.7 4.7 0 1 1-9.5 0 4.7 4.7 0 0 1 9.5 0Zm12.6 0a4.7 4.7 0 1 1-9.5 0 4.7 4.7 0 0 1 9.5 0Zm12.6 0a4.7 4.7 0 1 1-9.5 0 4.7 4.7 0 0 1 9.5 0Zm12.7 0a4.7 4.7 0 1 1-9.5 0 4.7 4.7 0 0 1 9.5 0Zm12.5 0a4.7 4.7 0 1 1-9.5 0 4.7 4.7 0 0 1 9.5 0Zm12.4 0a4.7 4.7 0 1 1-9.4 0 4.7 4.7 0 0 1 9.4 0Zm12.7 0a4.7 4.7 0 1 1-9.4 0 4.7 4.7 0 0 1 9.4 0Zm12.7 0a4.7 4.7 0 1 1-9.5 0 4.7 4.7 0 0 1 9.5 0Zm12.5 0a4.7 4.7 0 1 1-9.4 0 4.7 4.7 0 0 1 9.4 0Zm12.7 0a4.7 4.7 0 1 1-9.5 0 4.7 4.7 0 0 1 9.4 0Zm12.5 0a4.7 4.7 0 1 1-9.4 0 4.7 4.7 0 0 1 9.4 0ZM97.7 231.5a4.7 4.7 0 1 1-9.5 0 4.7 4.7 0 0 1 9.5 0Zm12.6 0a4.7 4.7 0 1 1-9.5 0 4.7 4.7 0 0 1 9.5 0Zm12.6 0a4.7 4.7 0 1 1-9.5 0 4.7 4.7 0 0 1 9.5 0Zm12.6 0a4.7 4.7 0 1 1-9.5 0 4.7 4.7 0 0 1 9.5 0Zm12.5 0a4.7 4.7 0 1 1-9.4 0 4.7 4.7 0 0 1 9.5 0Zm63 0a4.7 4.7 0 1 1-9.4 0 4.7 4.7 0 0 1 9.4 0Zm252 0a4.7 4.7 0 1 1-9.4 0 4.7 4.7 0 0 1 9.4 0Zm12.6 0a4.7 4.7 0 1 1-9.5 0 4.7 4.7 0 0 1 9.5 0Zm12.6 0a4.7 4.7 0 1 1-9.4 0 4.7 4.7 0 0 1 9.4 0Zm12.6 0a4.7 4.7 0 1 1-9.5 0 4.7 4.7 0 0 1 9.5 0Zm12.6 0a4.7 4.7 0 0 1-8 3.3 4.7 4.7 0 1 1 8-3.3Zm12.6 0a4.7 4.7 0 1 1-9.4 0 4.7 4.7 0 0 1 9.4 0Zm12.6 0a4.7 4.7 0 1 1-9.5 0 4.7 4.7 0 0 1 9.5 0Zm12.6 0a4.7 4.7 0 1 1-9.4 0 4.7 4.7 0 0 1 9.4 0Zm12.6 0a4.7 4.7 0 1 1-9.5 0 4.7 4.7 0 0 1 9.5 0Zm12.6 0a4.7 4.7 0 1 1-9.4 0 4.7 4.7 0 0 1 9.4 0Zm12.6 0a4.7 4.7 0 1 1-9.4 0 4.7 4.7 0 0 1 9.4 0Zm12.6 0a4.7 4.7 0 1 1-9.5 0 4.7 4.7 0 0 1 9.5 0Zm12.6 0a4.7 4.7 0 0 1-8 3.3 4.7 4.7 0 1 1 8-3.3Zm12.6 0a4.7 4.7 0 1 1-9.5 0 4.7 4.7 0 0 1 9.5 0Zm12.5 0a4.7 4.7 0 1 1-9.4 0 4.7 4.7 0 0 1 9.4 0Zm25.3 0a4.7 4.7 0 1 1-9.5 0 4.7 4.7 0 0 1 9.5 0Zm12.6 0a4.7 4.7 0 1 1-9.4 0 4.7 4.7 0 0 1 9.4 0Zm12.6 0a4.7 4.7 0 1 1-9.5 0 4.7 4.7 0 0 1 9.5 0Zm12.6 0a4.7 4.7 0 1 1-9.5 0 4.7 4.7 0 0 1 9.5 0Zm75.6 0a4.7 4.7 0 1 1-9.5 0 4.7 4.7 0 0 1 9.5 0Zm12.6 0a4.7 4.7 0 1 1-9.5 0 4.7 4.7 0 0 1 9.5 0Zm12.6 0a4.7 4.7 0 1 1-9.5 0 4.7 4.7 0 0 1 9.5 0Zm25.2 0a4.7 4.7 0 0 1-8.1 3.3 4.7 4.7 0 1 1 8-3.3Zm12.6 0a4.7 4.7 0 1 1-9.5 0 4.7 4.7 0 0 1 9.5 0Zm12.6 0a4.7 4.7 0 1 1-9.5 0 4.7 4.7 0 0 1 9.5 0Zm12.6 0a4.7 4.7 0 1 1-9.5 0 4.7 4.7 0 0 1 9.5 0Zm12.6 0a4.7 4.7 0 1 1-9.5 0 4.7 4.7 0 0 1 9.5 0Zm12.7 0a4.7 4.7 0 1 1-9.5 0 4.7 4.7 0 0 1 9.5 0Zm12.5 0a4.7 4.7 0 1 1-9.5 0 4.7 4.7 0 0 1 9.5 0Zm12.4 0a4.7 4.7 0 1 1-9.4 0 4.7 4.7 0 0 1 9.4 0Zm12.7 0a4.7 4.7 0 1 1-9.4 0 4.7 4.7 0 0 1 9.4 0Zm12.7 0a4.7 4.7 0 1 1-9.5 0 4.7 4.7 0 0 1 9.5 0Zm12.5 0a4.7 4.7 0 1 1-9.4 0 4.7 4.7 0 0 1 9.4 0Zm12.7 0a4.7 4.7 0 1 1-9.5 0 4.7 4.7 0 0 1 9.4 0ZM97.7 244a4.7 4.7 0 1 1-9.5.1 4.7 4.7 0 0 1 9.5 0Zm12.6 0a4.7 4.7 0 1 1-9.5 0 4.7 4.7 0 0 1 9.5 0Zm7.8 4.8a4.7 4.7 0 1 0 0-9.4 4.7 4.7 0 0 0 0 9.4Zm17.4-4.8a4.7 4.7 0 1 1-9.5.1 4.7 4.7 0 0 1 9.5 0Zm63 0a4.7 4.7 0 1 1-9.5.1 4.7 4.7 0 0 1 9.5 0Zm7.8 4.8a4.7 4.7 0 1 0 0-9.4 4.7 4.7 0 0 0 0 9.4Zm252 0a4.7 4.7 0 1 0 0-9.4 4.7 4.7 0 0 0 0 9.4Zm17.3-4.8a4.7 4.7 0 1 1-9.5.1 4.7 4.7 0 0 1 9.5 0Zm7.9 4.8a4.7 4.7 0 1 0 0-9.4 4.7 4.7 0 0 0 0 9.4Zm17.3-4.8a4.7 4.7 0 1 1-9.5.1 4.7 4.7 0 0 1 9.5 0Zm12.6 0a4.7 4.7 0 1 1-9.4 0 4.7 4.7 0 0 1 9.4 0Zm7.9 4.8a4.7 4.7 0 1 0 0-9.4 4.7 4.7 0 0 0 0 9.4Zm17.3-4.8a4.7 4.7 0 1 1-9.5.1 4.7 4.7 0 0 1 9.5 0Zm7.9 4.8a4.7 4.7 0 1 0 0-9.4 4.7 4.7 0 0 0 0 9.4Zm17.3-4.8a4.7 4.7 0 1 1-9.5.1 4.7 4.7 0 0 1 9.5 0Zm12.6 0a4.7 4.7 0 1 1-9.4 0 4.7 4.7 0 0 1 9.4 0Zm7.9 4.8a4.7 4.7 0 1 0 0-9.4 4.7 4.7 0 0 0 0 9.4Zm17.3-4.8a4.7 4.7 0 1 1-9.5.1 4.7 4.7 0 0 1 9.5 0Zm7.9 4.8a4.7 4.7 0 1 0 0-9.4 4.7 4.7 0 0 0 0 9.4Zm17.3-4.8a4.7 4.7 0 1 1-9.5.1 4.7 4.7 0 0 1 9.5 0Zm12.5 0a4.7 4.7 0 1 1-9.4 0 4.7 4.7 0 0 1 9.4 0Zm8 4.8a4.7 4.7 0 1 0 0-9.4 4.7 4.7 0 0 0 0 9.4Zm25.2 0a4.7 4.7 0 1 0 0-9.4 4.7 4.7 0 0 0 0 9.4Zm17.3-4.8a4.7 4.7 0 1 1-9.5.1 4.7 4.7 0 0 1 9.5 0Zm12.6 0a4.7 4.7 0 1 1-9.5 0 4.7 4.7 0 0 1 9.5 0Zm12.6 0a4.7 4.7 0 1 1-9.5.1 4.7 4.7 0 0 1 9.5 0Zm12.6 0a4.7 4.7 0 1 1-9.5.1 4.7 4.7 0 0 1 9.5 0Zm7.9 4.8a4.7 4.7 0 1 0 0-9.4 4.7 4.7 0 0 0 0 9.4Zm55.1-4.8a4.7 4.7 0 1 1-9.5.1 4.7 4.7 0 0 1 9.5 0Zm7.8 4.8a4.7 4.7 0 1 0 0-9.4 4.7 4.7 0 0 0 0 9.4Zm17.4-4.8a4.7 4.7 0 1 1-9.5.1 4.7 4.7 0 0 1 9.5 0Zm7.8 4.8a4.7 4.7 0 1 0 0-9.4 4.7 4.7 0 0 0 0 9.4ZM841 244a4.7 4.7 0 1 1-9.5.1 4.7 4.7 0 0 1 9.5 0Zm12.6 0a4.7 4.7 0 1 1-9.5.1 4.7 4.7 0 0 1 9.5 0Zm7.8 4.8a4.7 4.7 0 1 0 0-9.4 4.7 4.7 0 0 0 0 9.4Zm17.4-4.8a4.7 4.7 0 1 1-9.5.1 4.7 4.7 0 0 1 9.5 0Zm7.8 4.8a4.7 4.7 0 1 0 0-9.4 4.7 4.7 0 0 0 0 9.4ZM904 244a4.7 4.7 0 1 1-9.5.1 4.7 4.7 0 0 1 9.5 0Zm12.4 0a4.7 4.7 0 1 1-9.4 0 4.7 4.7 0 0 1 9.4 0Zm8 4.8a4.7 4.7 0 1 0 0-9.4 4.7 4.7 0 0 0 0 9.4Zm17.4-4.8a4.7 4.7 0 1 1-9.5.1 4.7 4.7 0 0 1 9.5 0Zm7.8 4.8a4.7 4.7 0 1 0 0-9.4 4.7 4.7 0 0 0 0 9.4Zm-839.3 7.9a4.7 4.7 0 1 1-9.5 0 4.7 4.7 0 0 1 9.5 0Zm12.6 0a4.7 4.7 0 1 1-9.5 0 4.7 4.7 0 0 1 9.5 0Zm12.6 0a4.7 4.7 0 1 1-9.5 0 4.7 4.7 0 0 1 9.5 0Zm12.5 0a4.7 4.7 0 1 1-9.4 0 4.7 4.7 0 0 1 9.5 0Zm25.2 0a4.7 4.7 0 1 1-9.4 0 4.7 4.7 0 0 1 9.4 0Zm50.5 0a4.7 4.7 0 1 1-9.5 0 4.7 4.7 0 0 1 9.5 0Zm12.5 0a4.7 4.7 0 1 1-9.4 0 4.7 4.7 0 0 1 9.4 0Zm12.6 0a4.7 4.7 0 1 1-9.4 0 4.7 4.7 0 0 1 9.4 0Zm214.2 0a4.7 4.7 0 1 1-9.4 0 4.7 4.7 0 0 1 9.4 0Zm12.6 0a4.7 4.7 0 1 1-9.5 0 4.7 4.7 0 0 1 9.5 0Zm12.6 0a4.7 4.7 0 1 1-9.4 0 4.7 4.7 0 0 1 9.4 0Zm12.6 0a4.7 4.7 0 1 1-9.5 0 4.7 4.7 0 0 1 9.5 0Zm12.6 0a4.7 4.7 0 1 1-9.4 0 4.7 4.7 0 0 1 9.4 0Zm12.6 0a4.7 4.7 0 1 1-9.4 0 4.7 4.7 0 0 1 9.4 0Zm12.6 0a4.7 4.7 0 1 1-9.5 0 4.7 4.7 0 0 1 9.5 0Zm12.6 0a4.7 4.7 0 1 1-9.4 0 4.7 4.7 0 0 1 9.4 0Zm12.6 0a4.7 4.7 0 1 1-9.5 0 4.7 4.7 0 0 1 9.5 0Zm12.6 0a4.7 4.7 0 1 1-9.4 0 4.7 4.7 0 0 1 9.4 0Zm12.6 0a4.7 4.7 0 1 1-9.4 0 4.7 4.7 0 0 1 9.4 0Zm12.6 0a4.7 4.7 0 1 1-9.5 0 4.7 4.7 0 0 1 9.5 0Zm12.6 0a4.7 4.7 0 1 1-9.4 0 4.7 4.7 0 0 1 9.4 0Zm12.6 0a4.7 4.7 0 1 1-9.4 0 4.7 4.7 0 0 1 9.4 0Zm12.5 0a4.7 4.7 0 1 1-9.4 0 4.7 4.7 0 0 1 9.4 0Zm12.7 0a4.7 4.7 0 1 1-9.4 0 4.7 4.7 0 0 1 9.4 0Zm25.2 0a4.7 4.7 0 1 1-9.4 0 4.7 4.7 0 0 1 9.4 0Zm12.6 0a4.7 4.7 0 1 1-9.5 0 4.7 4.7 0 0 1 9.5 0Zm12.6 0a4.7 4.7 0 1 1-9.5 0 4.7 4.7 0 0 1 9.5 0Zm12.6 0a4.7 4.7 0 1 1-9.5 0 4.7 4.7 0 0 1 9.5 0Zm12.6 0a4.7 4.7 0 1 1-9.5 0 4.7 4.7 0 0 1 9.5 0Zm12.6 0a4.7 4.7 0 1 1-9.5 0 4.7 4.7 0 0 1 9.5 0Zm63 0a4.7 4.7 0 1 1-9.5 0 4.7 4.7 0 0 1 9.5 0Zm12.6 0a4.7 4.7 0 1 1-9.5 0 4.7 4.7 0 0 1 9.5 0Zm12.6 0a4.7 4.7 0 1 1-9.5 0 4.7 4.7 0 0 1 9.5 0Zm12.6 0a4.7 4.7 0 1 1-9.5 0 4.7 4.7 0 0 1 9.5 0Zm37.8 0a4.7 4.7 0 1 1-9.5 0 4.7 4.7 0 0 1 9.5 0Zm12.7 0a4.7 4.7 0 1 1-9.5 0 4.7 4.7 0 0 1 9.5 0Zm12.5 0a4.7 4.7 0 1 1-9.5 0 4.7 4.7 0 0 1 9.5 0Zm12.4 0a4.7 4.7 0 1 1-9.4 0 4.7 4.7 0 0 1 9.4 0Zm12.7 0a4.7 4.7 0 1 1-9.4 0 4.7 4.7 0 0 1 9.4 0Zm12.7 0a4.7 4.7 0 1 1-9.5 0 4.7 4.7 0 0 1 9.5 0ZM118.1 274a4.7 4.7 0 1 0 0-9.4 4.7 4.7 0 0 0 0 9.4Zm17.4-4.7a4.7 4.7 0 1 1-9.5 0 4.7 4.7 0 0 1 9.5 0Zm7.8 4.7a4.7 4.7 0 1 0 0-9.4 4.7 4.7 0 0 0 0 9.4Zm17.4-4.7a4.7 4.7 0 1 1-9.5 0 4.7 4.7 0 0 1 9.5 0Zm12.5 0a4.7 4.7 0 1 1-9.4 0 4.7 4.7 0 0 1 9.4 0Zm285.1 4.7a4.7 4.7 0 1 0 0-9.4 4.7 4.7 0 0 0 0 9.4Zm17.3-4.7a4.7 4.7 0 1 1-9.5 0 4.7 4.7 0 0 1 9.5 0Zm7.9 4.7a4.7 4.7 0 1 0 0-9.4 4.7 4.7 0 0 0 0 9.4Zm17.3-4.7a4.7 4.7 0 1 1-9.5 0 4.7 4.7 0 0 1 9.5 0Zm12.6 0a4.7 4.7 0 1 1-9.4 0 4.7 4.7 0 0 1 9.4 0Zm7.9 4.7a4.7 4.7 0 1 0 0-9.4 4.7 4.7 0 0 0 0 9.4Zm17.3-4.7a4.7 4.7 0 1 1-9.5 0 4.7 4.7 0 0 1 9.5 0Zm7.9 4.7a4.7 4.7 0 1 0 0-9.4 4.7 4.7 0 0 0 0 9.4Zm17.3-4.7a4.7 4.7 0 1 1-9.5 0 4.7 4.7 0 0 1 9.5 0Zm12.6 0a4.7 4.7 0 1 1-9.4 0 4.7 4.7 0 0 1 9.4 0Zm7.9 4.7a4.7 4.7 0 1 0 0-9.4 4.7 4.7 0 0 0 0 9.4Zm17.3-4.7a4.7 4.7 0 1 1-9.5 0 4.7 4.7 0 0 1 9.5 0Zm7.9 4.7a4.7 4.7 0 1 0 0-9.4 4.7 4.7 0 0 0 0 9.4Zm17.3-4.7a4.7 4.7 0 1 1-9.5 0 4.7 4.7 0 0 1 9.5 0Zm12.5 0a4.7 4.7 0 1 1-9.4 0 4.7 4.7 0 0 1 9.4 0Zm8 4.7a4.7 4.7 0 1 0 0-9.4 4.7 4.7 0 0 0 0 9.4Zm17.3-4.7a4.7 4.7 0 1 1-9.5 0 4.7 4.7 0 0 1 9.5 0Zm25.2 0a4.7 4.7 0 1 1-9.5 0 4.7 4.7 0 0 1 9.5 0Zm12.6 0a4.7 4.7 0 1 1-9.5 0 4.7 4.7 0 0 1 9.5 0Zm12.6 0a4.7 4.7 0 1 1-9.5 0 4.7 4.7 0 0 1 9.5 0Zm12.6 0a4.7 4.7 0 1 1-9.5 0 4.7 4.7 0 0 1 9.5 0Zm70.8 4.7a4.7 4.7 0 1 0 0-9.4 4.7 4.7 0 0 0 0 9.4Zm17.4-4.7a4.7 4.7 0 1 1-9.5 0 4.7 4.7 0 0 1 9.5 0Zm7.8 4.7a4.7 4.7 0 1 0 0-9.4 4.7 4.7 0 0 0 0 9.4Zm63 0a4.7 4.7 0 1 0 0-9.4 4.7 4.7 0 0 0 0 9.4Zm17.4-4.7a4.7 4.7 0 1 1-9.5 0 4.7 4.7 0 0 1 9.5 0Zm12.4 0a4.7 4.7 0 1 1-9.4 0 4.7 4.7 0 0 1 9.4 0Zm8 4.7a4.7 4.7 0 1 0 0-9.4 4.7 4.7 0 0 0 0 9.4Zm63 0a4.7 4.7 0 1 0 0-9.4 4.7 4.7 0 0 0 0 9.4Zm-826.7 7.9a4.7 4.7 0 1 1-9.5 0 4.7 4.7 0 0 1 9.5 0Zm12.5 0a4.7 4.7 0 1 1-9.4 0 4.7 4.7 0 0 1 9.4 0Zm12.7 0a4.7 4.7 0 1 1-9.5 0 4.7 4.7 0 0 1 9.5 0Zm277.1 0a4.7 4.7 0 1 1-9.4 0 4.7 4.7 0 0 1 9.4 0Zm12.6 0a4.7 4.7 0 1 1-9.5 0 4.7 4.7 0 0 1 9.5 0Zm12.6 0a4.7 4.7 0 1 1-9.4 0 4.7 4.7 0 0 1 9.4 0Zm12.6 0a4.7 4.7 0 1 1-9.5 0 4.7 4.7 0 0 1 9.5 0Zm12.6 0a4.7 4.7 0 1 1-9.4 0 4.7 4.7 0 0 1 9.4 0Zm12.6 0a4.7 4.7 0 1 1-9.4 0 4.7 4.7 0 0 1 9.4 0Zm12.6 0a4.7 4.7 0 1 1-9.5 0 4.7 4.7 0 0 1 9.5 0Zm12.6 0a4.7 4.7 0 1 1-9.4 0 4.7 4.7 0 0 1 9.4 0Zm12.6 0a4.7 4.7 0 1 1-9.5 0 4.7 4.7 0 0 1 9.5 0Zm12.6 0a4.7 4.7 0 1 1-9.4 0 4.7 4.7 0 0 1 9.4 0Zm12.6 0a4.7 4.7 0 1 1-9.4 0 4.7 4.7 0 0 1 9.4 0Zm12.6 0a4.7 4.7 0 1 1-9.5 0 4.7 4.7 0 0 1 9.5 0Zm12.6 0a4.7 4.7 0 1 1-9.4 0 4.7 4.7 0 0 1 9.4 0Zm12.6 0a4.7 4.7 0 1 1-9.5 0 4.7 4.7 0 0 1 9.5 0Zm12.5 0a4.7 4.7 0 1 1-9.4 0 4.7 4.7 0 0 1 9.4 0Zm12.7 0a4.7 4.7 0 1 1-9.4 0 4.7 4.7 0 0 1 9.4 0Zm12.6 0a4.7 4.7 0 1 1-9.5 0 4.7 4.7 0 0 1 9.5 0Zm12.6 0a4.7 4.7 0 1 1-9.4 0 4.7 4.7 0 0 1 9.4 0Zm12.6 0a4.7 4.7 0 1 1-9.5 0 4.7 4.7 0 0 1 9.5 0Zm12.6 0a4.7 4.7 0 1 1-9.5 0 4.7 4.7 0 0 1 9.5 0Zm113.4 0a4.7 4.7 0 1 1-9.5 0 4.7 4.7 0 0 1 9.5 0Zm12.6 0a4.7 4.7 0 1 1-9.5 0 4.7 4.7 0 0 1 9.5 0Zm75.6 0a4.7 4.7 0 1 1-9.5 0 4.7 4.7 0 0 1 9.5 0Zm12.4 0a4.7 4.7 0 1 1-9.4 0 4.7 4.7 0 0 1 9.4 0Zm12.7 0a4.7 4.7 0 1 1-9.4 0 4.7 4.7 0 0 1 9.4 0Zm12.7 0a4.7 4.7 0 1 1-9.5 0 4.7 4.7 0 0 1 9.5 0Zm50.3 0a4.7 4.7 0 1 1-9.4 0 4.7 4.7 0 0 1 9.4 0Zm-811 17.3a4.7 4.7 0 1 0 0-9.4 4.7 4.7 0 0 0 0 9.4Zm55.1-4.7a4.7 4.7 0 1 1-9.4 0 4.7 4.7 0 0 1 9.4 0Zm222.1 4.7a4.7 4.7 0 1 0 0-9.4 4.7 4.7 0 0 0 0 9.4Zm17.3-4.7a4.7 4.7 0 1 1-9.5 0 4.7 4.7 0 0 1 9.5 0Zm7.9 4.7a4.7 4.7 0 1 0 0-9.4 4.7 4.7 0 0 0 0 9.4Zm17.3-4.7a4.7 4.7 0 1 1-9.5 0 4.7 4.7 0 0 1 9.5 0Zm12.6 0a4.7 4.7 0 1 1-9.4 0 4.7 4.7 0 0 1 9.4 0Zm7.9 4.7a4.7 4.7 0 1 0 0-9.4 4.7 4.7 0 0 0 0 9.4Zm17.3-4.7a4.7 4.7 0 1 1-9.5 0 4.7 4.7 0 0 1 9.5 0Zm7.9 4.7a4.7 4.7 0 1 0 0-9.4 4.7 4.7 0 0 0 0 9.4Zm17.3-4.7a4.7 4.7 0 1 1-9.5 0 4.7 4.7 0 0 1 9.5 0Zm12.6 0a4.7 4.7 0 1 1-9.4 0 4.7 4.7 0 0 1 9.4 0Zm7.9 4.7a4.7 4.7 0 1 0 0-9.4 4.7 4.7 0 0 0 0 9.4Zm17.3-4.7a4.7 4.7 0 1 1-9.5 0 4.7 4.7 0 0 1 9.5 0Zm7.9 4.7a4.7 4.7 0 1 0 0-9.4 4.7 4.7 0 0 0 0 9.4Zm17.3-4.7a4.7 4.7 0 1 1-9.5 0 4.7 4.7 0 0 1 9.5 0Zm12.5 0a4.7 4.7 0 1 1-9.4 0 4.7 4.7 0 0 1 9.4 0Zm8 4.7a4.7 4.7 0 1 0 0-9.4 4.7 4.7 0 0 0 0 9.4Zm17.3-4.7a4.7 4.7 0 1 1-9.5 0 4.7 4.7 0 0 1 9.5 0Zm7.9 4.7a4.7 4.7 0 1 0 0-9.4 4.7 4.7 0 0 0 0 9.4Zm17.3-4.7a4.7 4.7 0 1 1-9.5 0 4.7 4.7 0 0 1 9.5 0Zm12.6 0a4.7 4.7 0 1 1-9.5 0 4.7 4.7 0 0 1 9.5 0Zm12.6 0a4.7 4.7 0 1 1-9.5 0 4.7 4.7 0 0 1 9.5 0Zm100.8 0a4.7 4.7 0 1 1-9.5 0 4.7 4.7 0 0 1 9.5 0Zm7.8 4.7a4.7 4.7 0 1 0 0-9.4 4.7 4.7 0 0 0 0 9.4Zm80.4-4.7a4.7 4.7 0 1 1-9.5 0 4.7 4.7 0 0 1 9.5 0Zm20.4 4.7a4.7 4.7 0 1 0 0-9.4 4.7 4.7 0 0 0 0 9.4Zm17.4-4.7a4.7 4.7 0 1 1-9.5 0 4.7 4.7 0 0 1 9.5 0Zm45.6 4.7a4.7 4.7 0 1 0 0-9.4 4.7 4.7 0 0 0 0 9.4Zm17.4-4.7a4.8 4.8 0 1 1-9.6 0 4.8 4.8 0 0 1 9.5 0ZM198.5 307a4.7 4.7 0 1 1-9.5.1 4.7 4.7 0 0 1 9.5 0Zm12.5 0a4.7 4.7 0 1 1-9.4 0 4.7 4.7 0 0 1 9.4 0Zm12.7 0a4.7 4.7 0 1 1-9.5.1 4.7 4.7 0 0 1 9.5 0Zm12.5 0a4.7 4.7 0 1 1-9.4 0 4.7 4.7 0 0 1 9.4 0Zm12.6 0a4.7 4.7 0 1 1-9.4.1 4.7 4.7 0 0 1 9.4 0Zm12.6 0a4.7 4.7 0 1 1-9.4 0 4.7 4.7 0 0 1 9.4 0Zm12.6 0a4.7 4.7 0 1 1-9.4 0 4.7 4.7 0 0 1 9.4 0Zm201.6 0a4.7 4.7 0 1 1-9.5.1 4.7 4.7 0 0 1 9.5 0Zm12.6 0a4.7 4.7 0 1 1-9.4 0 4.7 4.7 0 0 1 9.4 0Zm12.6 0a4.7 4.7 0 1 1-9.5.1 4.7 4.7 0 0 1 9.5 0Zm12.6 0a4.7 4.7 0 1 1-9.4 0 4.7 4.7 0 0 1 9.4 0Zm12.6 0a4.7 4.7 0 1 1-9.4 0 4.7 4.7 0 0 1 9.4 0Zm12.6 0a4.7 4.7 0 1 1-9.5.1 4.7 4.7 0 0 1 9.5 0Zm12.6 0a4.7 4.7 0 1 1-9.4 0 4.7 4.7 0 0 1 9.4 0Zm12.6 0a4.7 4.7 0 1 1-9.5.1 4.7 4.7 0 0 1 9.5 0Zm12.6 0a4.7 4.7 0 1 1-9.4 0 4.7 4.7 0 0 1 9.4 0Zm12.6 0a4.7 4.7 0 1 1-9.4 0 4.7 4.7 0 0 1 9.4 0Zm12.6 0a4.7 4.7 0 1 1-9.5.1 4.7 4.7 0 0 1 9.5 0Zm12.6 0a4.7 4.7 0 1 1-9.4 0 4.7 4.7 0 0 1 9.4 0Zm12.6 0a4.7 4.7 0 1 1-9.5.1 4.7 4.7 0 0 1 9.5 0Zm12.5 0a4.7 4.7 0 1 1-9.4 0 4.7 4.7 0 0 1 9.4 0Zm12.7 0a4.7 4.7 0 1 1-9.4 0 4.7 4.7 0 0 1 9.4 0Zm12.6 0a4.7 4.7 0 1 1-9.5.1 4.7 4.7 0 0 1 9.5 0Zm12.6 0a4.7 4.7 0 1 1-9.4 0 4.7 4.7 0 0 1 9.4 0Zm12.6 0a4.7 4.7 0 1 1-9.5.1 4.7 4.7 0 0 1 9.5 0Zm12.6 0a4.7 4.7 0 1 1-9.5 0 4.7 4.7 0 0 1 9.5 0Zm12.6 0a4.7 4.7 0 1 1-9.5.1 4.7 4.7 0 0 1 9.5 0Zm100.8 0a4.7 4.7 0 1 1-9.5.1 4.7 4.7 0 0 1 9.5 0Zm12.6 0a4.7 4.7 0 1 1-9.5 0 4.7 4.7 0 0 1 9.5 0Zm75.6 0a4.7 4.7 0 1 1-9.5.1 4.7 4.7 0 0 1 9.5 0Zm75.5 0a4.7 4.7 0 1 1-9.4 0 4.7 4.7 0 0 1 9.4 0Zm25.3 0a4.8 4.8 0 0 1-5.7 4.8 4.7 4.7 0 1 1 5.6-4.7Zm-781.1 12.7a4.7 4.7 0 1 1-9.5 0 4.7 4.7 0 0 1 9.5 0Zm12.5 0a4.7 4.7 0 1 1-9.4 0 4.7 4.7 0 0 1 9.4 0Zm7.9 4.7a4.7 4.7 0 1 0 0-9.4 4.7 4.7 0 0 0 0 9.4Zm17.3-4.7a4.7 4.7 0 1 1-9.4 0 4.7 4.7 0 0 1 9.4 0Zm7.9 4.7a4.7 4.7 0 1 0 0-9.4 4.7 4.7 0 0 0 0 9.4Zm17.3-4.7a4.7 4.7 0 1 1-9.4 0 4.7 4.7 0 0 1 9.4 0Zm12.6 0a4.7 4.7 0 1 1-9.4 0 4.7 4.7 0 0 1 9.4 0Zm176.4 0a4.7 4.7 0 1 1-9.5 0 4.7 4.7 0 0 1 9.5 0Zm7.9 4.7a4.7 4.7 0 1 0 0-9.4 4.7 4.7 0 0 0 0 9.4Zm17.3-4.7a4.7 4.7 0 1 1-9.5 0 4.7 4.7 0 0 1 9.5 0Zm37.8 0a4.7 4.7 0 1 1-9.5 0 4.7 4.7 0 0 1 9.5 0Zm7.9 4.7a4.7 4.7 0 1 0 0-9.4 4.7 4.7 0 0 0 0 9.4Zm17.3-4.7a4.7 4.7 0 1 1-9.5 0 4.7 4.7 0 0 1 9.5 0Zm12.6 0a4.7 4.7 0 1 1-9.4 0 4.7 4.7 0 0 1 9.4 0Zm7.9 4.7a4.7 4.7 0 1 0 0-9.4 4.7 4.7 0 0 0 0 9.4Zm17.3-4.7a4.7 4.7 0 1 1-9.5 0 4.7 4.7 0 0 1 9.5 0Zm7.9 4.7a4.7 4.7 0 1 0 0-9.4 4.7 4.7 0 0 0 0 9.4Zm17.3-4.7a4.7 4.7 0 1 1-9.5 0 4.7 4.7 0 0 1 9.5 0Zm12.5 0a4.7 4.7 0 1 1-9.4 0 4.7 4.7 0 0 1 9.4 0Zm8 4.7a4.7 4.7 0 1 0 0-9.4 4.7 4.7 0 0 0 0 9.4Zm17.3-4.7a4.7 4.7 0 1 1-9.5 0 4.7 4.7 0 0 1 9.5 0Zm7.9 4.7a4.7 4.7 0 1 0 0-9.4 4.7 4.7 0 0 0 0 9.4Zm17.3-4.7a4.7 4.7 0 1 1-9.5 0 4.7 4.7 0 0 1 9.5 0Zm12.6 0a4.7 4.7 0 1 1-9.5 0 4.7 4.7 0 0 1 9.5 0Zm201.6 0a4.7 4.7 0 1 1-9.5 0 4.7 4.7 0 0 1 9.5 0Zm12.4 0a4.7 4.7 0 1 1-9.4 0 4.7 4.7 0 0 1 9.4 0Zm63.1 0a4.7 4.7 0 1 1-9.4 0 4.7 4.7 0 0 1 9.4 0ZM211 332.3a4.7 4.7 0 1 1-9.4 0 4.7 4.7 0 0 1 9.4 0Zm12.7 0a4.7 4.7 0 1 1-9.5 0 4.7 4.7 0 0 1 9.5 0Zm12.5 0a4.7 4.7 0 1 1-9.4 0 4.7 4.7 0 0 1 9.4 0Zm12.6 0a4.7 4.7 0 1 1-9.4 0 4.7 4.7 0 0 1 9.4 0Zm12.6 0a4.7 4.7 0 1 1-9.4 0 4.7 4.7 0 0 1 9.4 0Zm12.6 0a4.7 4.7 0 1 1-9.4 0 4.7 4.7 0 0 1 9.4 0Zm12.6 0a4.7 4.7 0 1 1-9.4 0 4.7 4.7 0 0 1 9.4 0Zm12.6 0a4.7 4.7 0 1 1-9.4 0 4.7 4.7 0 0 1 9.4 0Zm12.6 0a4.7 4.7 0 1 1-9.5 0 4.7 4.7 0 0 1 9.5 0Zm239.4 0a4.7 4.7 0 1 1-9.4 0 4.7 4.7 0 0 1 9.4 0Zm12.6 0a4.7 4.7 0 1 1-9.5 0 4.7 4.7 0 0 1 9.5 0Zm12.6 0a4.7 4.7 0 1 1-9.4 0 4.7 4.7 0 0 1 9.4 0Zm12.6 0a4.7 4.7 0 1 1-9.4 0 4.7 4.7 0 0 1 9.4 0Zm12.6 0a4.7 4.7 0 1 1-9.5 0 4.7 4.7 0 0 1 9.5 0Zm12.6 0a4.7 4.7 0 1 1-9.4 0 4.7 4.7 0 0 1 9.4 0Zm12.6 0a4.7 4.7 0 1 1-9.5 0 4.7 4.7 0 0 1 9.5 0Zm12.5 0a4.7 4.7 0 1 1-9.4 0 4.7 4.7 0 0 1 9.4 0Zm12.7 0a4.7 4.7 0 1 1-9.4 0 4.7 4.7 0 0 1 9.4 0Zm12.6 0a4.7 4.7 0 1 1-9.5 0 4.7 4.7 0 0 1 9.5 0Zm12.6 0a4.7 4.7 0 1 1-9.4 0 4.7 4.7 0 0 1 9.4 0Zm12.6 0a4.7 4.7 0 1 1-9.5 0 4.7 4.7 0 0 1 9.5 0Zm214.2 0a4.7 4.7 0 1 1-9.5 0 4.7 4.7 0 0 1 9.5 0Zm12.4 0a4.7 4.7 0 1 1-9.4 0 4.7 4.7 0 0 1 9.4 0Zm37.9 0a4.7 4.7 0 1 1-9.4 0 4.7 4.7 0 0 1 9.4 0Zm12.7 0a4.7 4.7 0 1 1-9.5 0 4.7 4.7 0 0 1 9.4 0Zm12.5 0a4.7 4.7 0 1 1-9.4 0 4.7 4.7 0 0 1 9.4 0Zm-773.2 17.3a4.7 4.7 0 1 0 0-9.4 4.7 4.7 0 0 0 0 9.4Zm17.4-4.7a4.7 4.7 0 1 1-9.5 0 4.7 4.7 0 0 1 9.5 0Zm12.5 0a4.7 4.7 0 1 1-9.4 0 4.7 4.7 0 0 1 9.4 0Zm7.9 4.7a4.7 4.7 0 1 0 0-9.4 4.7 4.7 0 0 0 0 9.4Zm17.3-4.7a4.7 4.7 0 1 1-9.4 0 4.7 4.7 0 0 1 9.4 0Zm7.9 4.7a4.7 4.7 0 1 0 0-9.4 4.7 4.7 0 0 0 0 9.4Zm17.3-4.7a4.7 4.7 0 1 1-9.4 0 4.7 4.7 0 0 1 9.4 0Zm12.6 0a4.7 4.7 0 1 1-9.4 0 4.7 4.7 0 0 1 9.4 0Zm7.9 4.7a4.7 4.7 0 1 0 0-9.4 4.7 4.7 0 0 0 0 9.4Zm17.3-4.7a4.7 4.7 0 1 1-9.4 0 4.7 4.7 0 0 1 9.4 0Zm239.4 0a4.7 4.7 0 1 1-9.5 0 4.7 4.7 0 0 1 9.5 0Zm12.6 0a4.7 4.7 0 1 1-9.4 0 4.7 4.7 0 0 1 9.4 0Zm7.9 4.7a4.7 4.7 0 1 0 0-9.4 4.7 4.7 0 0 0 0 9.4Zm17.3-4.7a4.7 4.7 0 1 1-9.5 0 4.7 4.7 0 0 1 9.5 0Zm7.9 4.7a4.7 4.7 0 1 0 0-9.4 4.7 4.7 0 0 0 0 9.4Zm17.3-4.7a4.7 4.7 0 1 1-9.5 0 4.7 4.7 0 0 1 9.5 0Zm12.5 0a4.7 4.7 0 1 1-9.4 0 4.7 4.7 0 0 1 9.4 0Zm8 4.7a4.7 4.7 0 1 0 0-9.4 4.7 4.7 0 0 0 0 9.4Zm17.3-4.7a4.7 4.7 0 1 1-9.5 0 4.7 4.7 0 0 1 9.5 0Zm7.9 4.7a4.7 4.7 0 1 0 0-9.4 4.7 4.7 0 0 0 0 9.4Zm17.3-4.7a4.7 4.7 0 1 1-9.5 0 4.7 4.7 0 0 1 9.5 0Zm226.6 0a4.7 4.7 0 1 1-9.4 0 4.7 4.7 0 0 1 9.4 0Zm8 4.7a4.7 4.7 0 1 0 0-9.4 4.7 4.7 0 0 0 0 9.4Zm25.2 0a4.7 4.7 0 1 0 0-9.4 4.7 4.7 0 0 0 0 9.4Zm17.4-4.7a4.7 4.7 0 1 1-9.5 0 4.7 4.7 0 0 1 9.4 0Zm12.5 0a4.7 4.7 0 1 1-9.4 0 4.7 4.7 0 0 1 9.4 0Zm7.9 4.7a4.7 4.7 0 1 0 0-9.4 4.7 4.7 0 0 0 0 9.4Zm17.4-4.7a4.8 4.8 0 0 1-5.7 4.7 4.7 4.7 0 1 1 5.6-4.7Zm7.8 4.7a4.7 4.7 0 1 0 0-9.4 4.7 4.7 0 0 0 0 9.4Zm17.4-4.7a4.8 4.8 0 0 1-3 4.4 4.7 4.7 0 0 1-6.2-6.2 4.7 4.7 0 0 1 4.4-3 4.7 4.7 0 0 1 4.7 4.8Zm-819 12.6a4.7 4.7 0 1 1-9.4 0 4.7 4.7 0 0 1 9.4 0Zm12.7 0a4.7 4.7 0 1 1-9.5 0 4.7 4.7 0 0 1 9.5 0Zm12.5 0a4.7 4.7 0 1 1-9.4 0 4.7 4.7 0 0 1 9.4 0Zm12.6 0a4.7 4.7 0 1 1-9.4 0 4.7 4.7 0 0 1 9.4 0Zm12.6 0a4.7 4.7 0 1 1-9.4 0 4.7 4.7 0 0 1 9.4 0Zm12.6 0a4.7 4.7 0 1 1-9.4 0 4.7 4.7 0 0 1 9.4 0Zm12.6 0a4.8 4.8 0 1 1-9.5 0 4.8 4.8 0 0 1 9.5 0Zm12.6 0a4.7 4.7 0 1 1-9.4 0 4.7 4.7 0 0 1 9.4 0Zm12.6 0a4.7 4.7 0 1 1-9.5 0 4.7 4.7 0 0 1 9.5 0Zm12.6 0a4.7 4.7 0 1 1-9.4 0 4.7 4.7 0 0 1 9.4 0Zm12.6 0a4.7 4.7 0 1 1-9.4 0 4.7 4.7 0 0 1 9.4 0Zm12.7 0a4.8 4.8 0 1 1-9.5 0 4.8 4.8 0 0 1 9.5 0Zm12.5 0a4.7 4.7 0 1 1-9.5 0 4.7 4.7 0 0 1 9.5 0Zm201.6 0a4.7 4.7 0 1 1-9.5 0 4.7 4.7 0 0 1 9.5 0Zm12.6 0a4.7 4.7 0 1 1-9.4 0 4.7 4.7 0 0 1 9.4 0Zm12.6 0a4.7 4.7 0 1 1-9.5 0 4.7 4.7 0 0 1 9.5 0Zm12.6 0a4.8 4.8 0 1 1-9.5 0 4.8 4.8 0 0 1 9.5 0Zm12.6 0a4.7 4.7 0 1 1-9.4 0 4.7 4.7 0 0 1 9.4 0Zm12.6 0a4.7 4.7 0 1 1-9.5 0 4.7 4.7 0 0 1 9.5 0Zm12.5 0a4.7 4.7 0 1 1-9.4 0 4.7 4.7 0 0 1 9.4 0Zm12.7 0a4.7 4.7 0 1 1-9.5 0 4.7 4.7 0 0 1 9.5 0Zm12.6 0a4.7 4.7 0 1 1-9.5 0 4.7 4.7 0 0 1 9.5 0Zm12.6 0a4.7 4.7 0 1 1-9.5 0 4.7 4.7 0 0 1 9.5 0Zm239.2 0a4.7 4.7 0 1 1-9.4 0 4.7 4.7 0 0 1 9.4 0Zm12.7 0a4.7 4.7 0 1 1-9.4 0 4.7 4.7 0 0 1 9.4 0Zm12.7 0a4.7 4.7 0 1 1-9.5 0 4.7 4.7 0 0 1 9.5 0Zm12.5 0a4.7 4.7 0 1 1-9.4 0 4.7 4.7 0 0 1 9.4 0Zm12.7 0a4.7 4.7 0 1 1-9.5 0 4.7 4.7 0 0 1 9.4 0Zm25.1 0a4.7 4.7 0 1 1-9.4 0 4.7 4.7 0 0 1 9.4 0Zm25.2 0Zm12.7 0a4.8 4.8 0 0 1-5.7 4.6 4.8 4.8 0 0 1-3.8-3.7 4.8 4.8 0 0 1 2-4.9 4.7 4.7 0 0 1 6 .6c.5.5.8 1 1 1.6.3.5.4 1.2.4 1.8Zm12.5 0a4.7 4.7 0 0 1-5.6 4.6 4.7 4.7 0 0 1-3.7-3.7 4.7 4.7 0 0 1 2-4.9 4.7 4.7 0 0 1 6 .6 4.6 4.6 0 0 1 1.3 3.4Zm12.6 0Zm12.6 0a4.8 4.8 0 0 1-8 3.3 4.8 4.8 0 0 1 3.4-8.1 4.7 4.7 0 0 1 4.6 4.8Zm12.6 0a4.7 4.7 0 0 1-5.6 4.6 4.7 4.7 0 0 1-1.7-8.6 4.7 4.7 0 0 1 6 .6 4.6 4.6 0 0 1 1.3 3.4Zm37.8 0a4.7 4.7 0 0 1-5.6 4.6 4.7 4.7 0 0 1-1.7-8.6 4.7 4.7 0 0 1 6 .6 4.6 4.6 0 0 1 1.3 3.4Zm-911.8 17.3a4.7 4.7 0 1 0 0-9.5 4.7 4.7 0 0 0 0 9.5Zm17.4-4.8a4.7 4.7 0 1 1-9.5.1 4.7 4.7 0 0 1 9.5 0Zm12.5 0a4.7 4.7 0 1 1-9.4 0 4.7 4.7 0 0 1 9.4 0Zm7.9 4.8a4.7 4.7 0 1 0 0-9.5 4.7 4.7 0 0 0 0 9.5Zm17.3-4.8a4.7 4.7 0 1 1-9.4 0 4.7 4.7 0 0 1 9.4 0Zm7.9 4.8a4.7 4.7 0 1 0 0-9.5 4.7 4.7 0 0 0 0 9.5Zm17.3-4.8a4.7 4.7 0 1 1-9.4.1 4.7 4.7 0 0 1 9.4 0Zm12.6 0a4.7 4.7 0 1 1-9.4 0 4.7 4.7 0 0 1 9.4 0Zm7.9 4.8a4.7 4.7 0 1 0 0-9.5 4.7 4.7 0 0 0 0 9.5Zm17.3-4.8a4.7 4.7 0 1 1-9.4 0 4.7 4.7 0 0 1 9.4 0Zm7.9 4.8a4.7 4.7 0 1 0 0-9.5 4.7 4.7 0 0 0 0 9.5Zm17.4-4.8a4.7 4.7 0 1 1-9.5.1 4.7 4.7 0 0 1 9.5 0Zm12.5 0a4.7 4.7 0 1 1-9.5 0 4.7 4.7 0 0 1 9.5 0Zm12.6 0a4.7 4.7 0 1 1-9.5.1 4.7 4.7 0 0 1 9.5 0Zm189 0a4.7 4.7 0 1 1-9.5.1 4.7 4.7 0 0 1 9.5 0Zm12.6 0a4.7 4.7 0 1 1-9.4 0 4.7 4.7 0 0 1 9.4 0Zm7.9 4.8a4.7 4.7 0 1 0 0-9.5 4.7 4.7 0 0 0 0 9.5Zm17.3-4.8a4.7 4.7 0 1 1-9.5.1 4.7 4.7 0 0 1 9.5 0Zm7.9 4.8a4.7 4.7 0 1 0 0-9.5 4.7 4.7 0 0 0 0 9.5Zm17.3-4.8a4.7 4.7 0 1 1-9.5.1 4.7 4.7 0 0 1 9.5 0Zm12.5 0a4.7 4.7 0 1 1-9.4 0 4.7 4.7 0 0 1 9.4 0Zm8 4.8a4.7 4.7 0 1 0 0-9.5 4.7 4.7 0 0 0 0 9.5Zm17.3-4.8a4.7 4.7 0 1 1-9.5.1 4.7 4.7 0 0 1 9.5 0Zm259.8 4.8a4.7 4.7 0 1 0 0-9.5 4.7 4.7 0 0 0 0 9.5Zm17.4-4.8a4.7 4.7 0 1 1-9.5.1 4.7 4.7 0 0 1 9.5 0Zm7.8 4.8a4.7 4.7 0 1 0 0-9.5 4.7 4.7 0 0 0 0 9.5Zm92.9-4.8a4.7 4.7 0 0 1-8 3.4 4.7 4.7 0 0 1-1-5.1 4.7 4.7 0 0 1 7.7-1.6 4.6 4.6 0 0 1 1.3 3.4Zm25.2 0a4.8 4.8 0 0 1-5.6 4.7 4.7 4.7 0 1 1 5.6-4.6Zm7.9 4.8a4.7 4.7 0 1 0 0-9.5 4.7 4.7 0 0 0 0 9.5Zm17.4-4.8a4.7 4.7 0 0 1-3 4.5 4.7 4.7 0 0 1-6.5-3.5 4.8 4.8 0 0 1 2-4.9 4.7 4.7 0 0 1 6 .6c1 1 1.4 2.1 1.4 3.4Zm12.5 0a4.7 4.7 0 0 1-8 3.4 4.7 4.7 0 0 1-1-5.1 4.7 4.7 0 0 1 7.6-1.6 4.6 4.6 0 0 1 1.4 3.4Zm25.2 0a4.8 4.8 0 0 1-2.9 4.5 4.7 4.7 0 0 1-6.2-6.2 4.8 4.8 0 0 1 8.8 0c.2.5.3 1.1.3 1.8ZM211 382.7a4.7 4.7 0 1 1-9.4 0 4.7 4.7 0 0 1 9.4 0Zm12.7 0a4.7 4.7 0 1 1-9.5 0 4.7 4.7 0 0 1 9.5 0Zm12.5 0a4.7 4.7 0 1 1-9.4 0 4.7 4.7 0 0 1 9.4 0Zm12.6 0a4.7 4.7 0 1 1-9.4 0 4.7 4.7 0 0 1 9.4 0Zm12.6 0a4.7 4.7 0 1 1-9.4 0 4.7 4.7 0 0 1 9.4 0Zm12.6 0a4.7 4.7 0 1 1-9.4 0 4.7 4.7 0 0 1 9.4 0Zm12.6 0a4.7 4.7 0 1 1-9.4 0 4.7 4.7 0 0 1 9.4 0Zm12.6 0a4.7 4.7 0 1 1-9.4 0 4.7 4.7 0 0 1 9.4 0Zm12.6 0a4.7 4.7 0 1 1-9.5 0 4.7 4.7 0 0 1 9.5 0Zm12.6 0a4.7 4.7 0 1 1-9.4 0 4.7 4.7 0 0 1 9.4 0Zm12.6 0a4.7 4.7 0 1 1-9.4 0 4.7 4.7 0 0 1 9.4 0Zm12.7 0a4.7 4.7 0 1 1-9.5 0 4.7 4.7 0 0 1 9.5 0Zm12.5 0a4.7 4.7 0 1 1-9.5 0 4.7 4.7 0 0 1 9.5 0Zm12.6 0a4.7 4.7 0 1 1-9.5 0 4.7 4.7 0 0 1 9.5 0Zm189 0a4.7 4.7 0 1 1-9.5 0 4.7 4.7 0 0 1 9.5 0Zm12.6 0a4.7 4.7 0 1 1-9.4 0 4.7 4.7 0 0 1 9.4 0Zm12.6 0a4.7 4.7 0 1 1-9.4 0 4.7 4.7 0 0 1 9.4 0Zm12.6 0a4.7 4.7 0 1 1-9.5 0 4.7 4.7 0 0 1 9.5 0Zm12.6 0a4.7 4.7 0 1 1-9.4 0 4.7 4.7 0 0 1 9.4 0Zm12.6 0a4.7 4.7 0 1 1-9.5 0 4.7 4.7 0 0 1 9.5 0Zm12.5 0a4.7 4.7 0 1 1-9.4 0 4.7 4.7 0 0 1 9.4 0Zm12.7 0a4.7 4.7 0 1 1-9.4 0 4.7 4.7 0 0 1 9.4 0Zm12.6 0a4.7 4.7 0 1 1-9.5 0 4.7 4.7 0 0 1 9.5 0Zm302.4 0a4.7 4.7 0 1 1-9.5 0 4.7 4.7 0 0 1 9.4 0Zm12.5 0a4.7 4.7 0 1 1-9.4 0 4.7 4.7 0 0 1 9.4 0Zm12.6 0a4.7 4.7 0 1 1-9.4 0 4.7 4.7 0 0 1 9.4 0Zm12.7 0a4.8 4.8 0 0 1-5.7 4.7 4.7 4.7 0 1 1 5.6-4.7Zm12.5 0a4.7 4.7 0 0 1-8 3.3 4.7 4.7 0 0 1 .7-7.3 4.7 4.7 0 0 1 7.3 4Zm50.4 0a4.8 4.8 0 0 1-5.6 4.7 4.7 4.7 0 1 1 5.6-4.7Zm25.3 0a4.7 4.7 0 0 1-3 4.4 4.7 4.7 0 0 1-6.5-3.5 4.8 4.8 0 0 1 2-4.9 4.7 4.7 0 0 1 6 .6c1 1 1.4 2.1 1.4 3.4Zm12.5 0a4.7 4.7 0 0 1-8 3.3 4.7 4.7 0 0 1 .7-7.3 4.7 4.7 0 0 1 6 .6c.8 1 1.3 2.1 1.3 3.4Zm-881.8 12.6a4.7 4.7 0 1 1-9.5 0 4.7 4.7 0 0 1 9.5 0Zm12.5 0a4.7 4.7 0 1 1-9.4 0 4.7 4.7 0 0 1 9.4 0Zm7.9 4.7a4.7 4.7 0 1 0 0-9.4 4.7 4.7 0 0 0 0 9.4Zm17.3-4.7a4.7 4.7 0 1 1-9.4 0 4.7 4.7 0 0 1 9.4 0Zm7.9 4.7a4.7 4.7 0 1 0 0-9.4 4.7 4.7 0 0 0 0 9.4Zm17.3-4.7a4.7 4.7 0 1 1-9.4 0 4.7 4.7 0 0 1 9.4 0Zm12.6 0a4.7 4.7 0 1 1-9.4 0 4.7 4.7 0 0 1 9.4 0Zm7.9 4.7a4.7 4.7 0 1 0 0-9.4 4.7 4.7 0 0 0 0 9.4Zm17.3-4.7a4.7 4.7 0 1 1-9.4 0 4.7 4.7 0 0 1 9.4 0Zm7.9 4.7a4.7 4.7 0 1 0 0-9.4 4.7 4.7 0 0 0 0 9.4Zm17.4-4.7a4.7 4.7 0 1 1-9.5 0 4.7 4.7 0 0 1 9.5 0Zm12.5 0a4.7 4.7 0 1 1-9.5 0 4.7 4.7 0 0 1 9.5 0Zm12.6 0a4.7 4.7 0 1 1-9.5 0 4.7 4.7 0 0 1 9.5 0Zm189 0a4.7 4.7 0 1 1-9.5 0 4.7 4.7 0 0 1 9.5 0Zm12.6 0a4.7 4.7 0 1 1-9.4 0 4.7 4.7 0 0 1 9.4 0Zm7.9 4.7a4.7 4.7 0 1 0 0-9.4 4.7 4.7 0 0 0 0 9.4Zm17.3-4.7a4.7 4.7 0 1 1-9.5.1 4.7 4.7 0 0 1 9.5-.1Zm7.9 4.7a4.7 4.7 0 1 0 0-9.4 4.7 4.7 0 0 0 0 9.4Zm17.3-4.7a4.7 4.7 0 1 1-9.5.1 4.7 4.7 0 0 1 9.5-.1Zm12.5 0a4.7 4.7 0 1 1-9.4 0 4.7 4.7 0 0 1 9.4 0Zm8 4.7a4.7 4.7 0 1 0 0-9.4 4.7 4.7 0 0 0 0 9.4Zm17.3-4.7a4.7 4.7 0 1 1-9.5 0 4.7 4.7 0 0 1 9.5 0Zm-440.9 12.6a4.7 4.7 0 1 1-9.5 0 4.7 4.7 0 0 1 9.5 0Zm12.5 0a4.7 4.7 0 1 1-9.4 0 4.7 4.7 0 0 1 9.4 0Zm12.6 0a4.7 4.7 0 1 1-9.4 0 4.7 4.7 0 0 1 9.4 0Zm12.6 0a4.7 4.7 0 1 1-9.4 0 4.7 4.7 0 0 1 9.4 0Zm12.6 0a4.7 4.7 0 1 1-9.4 0 4.7 4.7 0 0 1 9.4 0Zm12.6 0a4.7 4.7 0 1 1-9.4 0 4.7 4.7 0 0 1 9.4 0Zm12.6 0a4.7 4.7 0 1 1-9.4-.2 4.7 4.7 0 0 1 9.4.2Zm12.6 0a4.7 4.7 0 1 1-9.4-.1 4.7 4.7 0 0 1 9.4 0Zm12.6 0a4.7 4.7 0 0 1-8 3.2 4.7 4.7 0 1 1 8-3.2Zm12.6 0a4.7 4.7 0 1 1-9.4-.2 4.7 4.7 0 0 1 9.4.2Zm12.7 0a4.7 4.7 0 1 1-9.5 0 4.7 4.7 0 0 1 9.5 0Zm12.5 0a4.7 4.7 0 1 1-9.5 0 4.7 4.7 0 0 1 9.5 0Zm201.6 0a4.7 4.7 0 1 1-9.5 0 4.7 4.7 0 0 1 9.5 0Zm12.6 0a4.7 4.7 0 1 1-9.4 0 4.7 4.7 0 0 1 9.4 0Zm12.6 0a4.7 4.7 0 1 1-9.4-.2 4.7 4.7 0 0 1 9.4.2Zm12.6 0a4.7 4.7 0 1 1-9.5-.1 4.7 4.7 0 0 1 9.5 0Zm12.6 0a4.7 4.7 0 1 1-9.4 0 4.7 4.7 0 0 1 9.4 0Zm12.6 0a4.7 4.7 0 1 1-9.5-.1 4.7 4.7 0 0 1 9.5 0Zm12.5 0a4.7 4.7 0 1 1-9.4 0 4.7 4.7 0 0 1 9.4 0Zm12.7 0a4.7 4.7 0 1 1-9.4 0 4.7 4.7 0 0 1 9.4 0Zm12.6 0a4.7 4.7 0 1 1-9.5 0 4.7 4.7 0 0 1 9.5 0Zm37.8 0a4.7 4.7 0 1 1-9.5 0 4.7 4.7 0 0 1 9.5 0Zm302.4 0a4.8 4.8 0 0 1-5.7 4.6 4.7 4.7 0 1 1 5.6-4.6Zm12.5 0a4.7 4.7 0 0 1-8 3.3 4.7 4.7 0 0 1 .7-7.3 4.7 4.7 0 0 1 7.3 4Zm12.7 0a4.8 4.8 0 0 1-3 4.4 4.7 4.7 0 0 1-4.4-8.4c.8-.5 1.7-.8 2.6-.8a4.7 4.7 0 0 1 4.7 4.8Zm12.5 0a4.7 4.7 0 0 1-8 3.3 4.7 4.7 0 0 1 .7-7.3 4.7 4.7 0 0 1 7.3 4Zm37.8 0a4.7 4.7 0 0 1-8 3.3 4.7 4.7 0 0 1 .7-7.3 4.7 4.7 0 0 1 7.3 4Zm-831.5 12.6a4.7 4.7 0 1 1-9.4 0 4.7 4.7 0 0 1 9.4 0Zm12.6 0a4.7 4.7 0 1 1-9.4 0 4.7 4.7 0 0 1 9.4 0Zm12.6 0a4.7 4.7 0 1 1-9.4 0 4.7 4.7 0 0 1 9.4 0Zm12.6 0a4.7 4.7 0 1 1-9.4 0 4.7 4.7 0 0 1 9.4 0Zm12.6 0a4.7 4.7 0 0 1-9.3 1 4.7 4.7 0 1 1 9.3-1Zm12.6 0a4.7 4.7 0 1 1-9.5 0 4.7 4.7 0 0 1 9.5 0Zm12.6 0a4.7 4.7 0 1 1-9.4 0 4.7 4.7 0 0 1 9.4 0Zm12.6 0a4.7 4.7 0 1 1-9.4 0 4.7 4.7 0 0 1 9.4 0Zm12.7 0a4.7 4.7 0 1 1-9.5 0 4.7 4.7 0 0 1 9.5 0Zm12.5 0a4.7 4.7 0 1 1-9.5 0 4.7 4.7 0 0 1 9.5 0Zm201.6 0a4.7 4.7 0 1 1-9.5 0 4.7 4.7 0 0 1 9.5 0Zm12.6 0a4.7 4.7 0 1 1-9.4 0 4.7 4.7 0 0 1 9.4 0Zm12.6 0a4.7 4.7 0 1 1-9.4 0 4.7 4.7 0 0 1 9.4 0Zm12.6 0a4.7 4.7 0 1 1-9.5 0 4.7 4.7 0 0 1 9.5 0Zm12.6 0a4.7 4.7 0 0 1-9.4 1 4.7 4.7 0 1 1 9.4-1Zm12.6 0a4.7 4.7 0 1 1-9.5 0 4.7 4.7 0 0 1 9.5 0Zm12.5 0a4.7 4.7 0 1 1-9.4 0 4.7 4.7 0 0 1 9.4 0Zm12.7 0a4.7 4.7 0 1 1-9.5 0 4.7 4.7 0 0 1 9.5 0Zm12.6 0a4.7 4.7 0 1 1-9.5 0 4.7 4.7 0 0 1 9.5 0Zm25.2 0a4.7 4.7 0 1 1-9.5 0 4.7 4.7 0 0 1 9.5 0Zm12.6 0a4.7 4.7 0 1 1-9.5 0 4.7 4.7 0 0 1 9.5 0Zm289.7 0a4.7 4.7 0 1 1-9.4 0 4.7 4.7 0 0 1 9.4 0Zm12.7 0a4.8 4.8 0 1 1-9.6 0 4.8 4.8 0 0 1 9.5 0Zm12.5 0a4.7 4.7 0 1 1-.4-1.8c.3.6.4 1.2.4 1.8Zm12.7 0a4.8 4.8 0 0 1-5.7 4.7 4.8 4.8 0 0 1-3.8-3.7 4.8 4.8 0 0 1 4.7-5.7 4.7 4.7 0 0 1 4.7 4.7Zm12.5 0a4.7 4.7 0 0 1-5.6 4.6 4.7 4.7 0 0 1-3.5-6.4 4.7 4.7 0 0 1 9.1 1.8Zm12.6 0a4.7 4.7 0 1 1-.4-1.8c.3.6.4 1.2.4 1.8Zm12.6 0a4.8 4.8 0 1 1-9.5 0 4.8 4.8 0 0 1 9.5 0Zm12.6 0a4.7 4.7 0 0 1-5.6 4.6 4.7 4.7 0 0 1-3.5-6.4 4.7 4.7 0 0 1 9.1 1.8ZM248.8 433a4.7 4.7 0 1 1-9.4 0 4.7 4.7 0 0 1 9.4 0Zm12.6 0a4.7 4.7 0 1 1-9.4 0 4.7 4.7 0 0 1 9.4 0Zm12.6 0a4.7 4.7 0 1 1-9.4 0 4.7 4.7 0 0 1 9.4 0Zm12.6 0a4.7 4.7 0 1 1-9.4 0 4.7 4.7 0 0 1 9.4 0Zm12.6 0a4.7 4.7 0 1 1-9.4 0 4.7 4.7 0 0 1 9.4 0Zm12.6 0a4.7 4.7 0 1 1-9.5 0 4.7 4.7 0 0 1 9.5 0Zm12.6 0a4.7 4.7 0 1 1-9.4 0 4.7 4.7 0 0 1 9.4 0Zm12.6 0a4.7 4.7 0 1 1-9.4 0 4.7 4.7 0 0 1 9.4 0Zm12.7 0a4.7 4.7 0 1 1-9.5 0 4.7 4.7 0 0 1 9.5 0Zm12.5 0a4.7 4.7 0 1 1-9.5 0 4.7 4.7 0 0 1 9.5 0Zm214.2 0a4.7 4.7 0 1 1-9.4 0 4.7 4.7 0 0 1 9.4 0Zm12.6 0a4.7 4.7 0 1 1-9.4 0 4.7 4.7 0 0 1 9.4 0Zm12.6 0a4.7 4.7 0 1 1-9.5 0 4.7 4.7 0 0 1 9.5 0Zm12.6 0a4.7 4.7 0 1 1-9.4 0 4.7 4.7 0 0 1 9.4 0Zm12.6 0a4.7 4.7 0 1 1-9.5 0 4.7 4.7 0 0 1 9.5 0Zm12.5 0a4.7 4.7 0 1 1-9.4 0 4.7 4.7 0 0 1 9.4 0Zm12.7 0a4.7 4.7 0 1 1-9.4 0 4.7 4.7 0 0 1 9.4 0Zm37.8 0a4.7 4.7 0 1 1-9.5 0 4.7 4.7 0 0 1 9.5 0Zm12.6 0a4.7 4.7 0 1 1-9.5 0 4.7 4.7 0 0 1 9.5 0Zm277.1 0a4.7 4.7 0 1 1-9.4 0 4.7 4.7 0 0 1 9.4 0Zm12.6 0a4.7 4.7 0 1 1-9.4 0 4.7 4.7 0 0 1 9.4 0Zm12.7 0a4.8 4.8 0 0 1-5.7 4.7 4.7 4.7 0 1 1 5.6-4.7Zm12.5 0a4.7 4.7 0 0 1-8 3.4 4.7 4.7 0 0 1 .7-7.3 4.7 4.7 0 0 1 7.3 4Zm12.7 0a4.8 4.8 0 0 1-3 4.4 4.7 4.7 0 0 1-4.4-8.3c.8-.5 1.7-.8 2.6-.8a4.7 4.7 0 0 1 4.7 4.7Zm12.5 0a4.7 4.7 0 0 1-8 3.4 4.7 4.7 0 0 1 .7-7.3 4.7 4.7 0 0 1 7.3 4Zm12.6 0a4.7 4.7 0 0 1-8 3.4 4.8 4.8 0 0 1-1.3-2.4c-.2-1-.1-2 .3-2.8a4.8 4.8 0 0 1 4.3-2.9 4.7 4.7 0 0 1 4.7 4.7Zm12.6 0a4.8 4.8 0 0 1-2.9 4.4 4.7 4.7 0 1 1 3-4.4Zm12.6 0a4.7 4.7 0 0 1-8 3.4 4.7 4.7 0 0 1 .7-7.3 4.7 4.7 0 0 1 7.3 4Zm12.7 0a4.7 4.7 0 0 1-3 4.4 4.7 4.7 0 0 1-6.5-3.4 4.8 4.8 0 0 1 2-4.9c.8-.5 1.8-.8 2.7-.8a4.7 4.7 0 0 1 4.7 4.7Zm-844.2 12.7a4.7 4.7 0 1 1-9.4 0 4.7 4.7 0 0 1 9.4 0Zm12.6 0a4.7 4.7 0 1 1-9.4 0 4.7 4.7 0 0 1 9.4 0Zm12.6 0a4.7 4.7 0 1 1-9.4 0 4.7 4.7 0 0 1 9.4 0Zm12.6 0a4.7 4.7 0 1 1-9.4 0 4.7 4.7 0 0 1 9.4 0Zm12.6 0a4.7 4.7 0 1 1-9.4 0 4.7 4.7 0 0 1 9.4 0Zm12.6 0a4.7 4.7 0 1 1-9.5 0 4.7 4.7 0 0 1 9.5 0Zm12.6 0a4.7 4.7 0 1 1-9.4 0 4.7 4.7 0 0 1 9.4 0Zm12.6 0a4.7 4.7 0 1 1-9.4 0 4.7 4.7 0 0 1 9.4 0Zm12.7 0a4.7 4.7 0 1 1-9.5 0 4.7 4.7 0 0 1 9.5 0Zm226.7 0a4.7 4.7 0 1 1-9.4 0 4.7 4.7 0 0 1 9.4 0Zm12.6 0a4.7 4.7 0 1 1-9.5 0 4.7 4.7 0 0 1 9.5 0Zm12.6 0a4.7 4.7 0 1 1-9.5 0 4.7 4.7 0 0 1 9.5 0Zm12.6 0a4.7 4.7 0 1 1-9.4 0 4.7 4.7 0 0 1 9.4 0Zm12.6 0a4.7 4.7 0 1 1-9.5 0 4.7 4.7 0 0 1 9.5 0Zm12.5 0a4.7 4.7 0 1 1-9.4 0 4.7 4.7 0 0 1 9.4 0Zm12.7 0a4.7 4.7 0 1 1-9.4 0 4.7 4.7 0 0 1 9.4 0Zm37.8 0a4.7 4.7 0 1 1-9.5 0 4.7 4.7 0 0 1 9.5 0Zm12.6 0a4.7 4.7 0 1 1-9.5 0 4.7 4.7 0 0 1 9.5 0Zm251.9 0a4.7 4.7 0 1 1-9.4 0 4.7 4.7 0 0 1 9.4 0Zm12.7 0a4.7 4.7 0 1 1-9.5 0 4.7 4.7 0 0 1 9.4 0Zm12.5 0a4.7 4.7 0 1 1-9.4 0 4.7 4.7 0 0 1 9.4 0Zm12.6 0a4.7 4.7 0 1 1-9.4 0 4.7 4.7 0 0 1 9.4 0Zm12.7 0a4.8 4.8 0 0 1-5.7 4.6 4.7 4.7 0 1 1 5.6-4.6Zm12.5 0a4.7 4.7 0 0 1-9.3.9 4.7 4.7 0 1 1 9.3-1Zm12.7 0a4.8 4.8 0 0 1-3 4.4 4.7 4.7 0 0 1-6.2-6.2 4.7 4.7 0 0 1 4.4-3 4.7 4.7 0 0 1 4.7 4.8Zm12.5 0a4.7 4.7 0 0 1-9.3.9c-.2-1-.1-1.9.3-2.7a4.7 4.7 0 0 1 7.6-1.6c1 1 1.4 2.1 1.4 3.4Zm12.6 0a4.7 4.7 0 0 1-8 3.3 4.8 4.8 0 0 1-1.3-2.4c-.2-1-.1-1.9.3-2.7a4.8 4.8 0 0 1 4.3-3 4.7 4.7 0 0 1 4.7 4.8Zm12.6 0a4.8 4.8 0 0 1-5.6 4.6 4.7 4.7 0 1 1 5.6-4.6Zm12.6 0a4.7 4.7 0 0 1-9.3.9 4.7 4.7 0 1 1 9.3-1Zm12.7 0a4.7 4.7 0 0 1-3 4.4 4.7 4.7 0 0 1-6.5-3.5 4.8 4.8 0 0 1 2-4.9 4.7 4.7 0 0 1 6 .6c1 1 1.4 2.1 1.4 3.4Zm-844.2 12.5a4.7 4.7 0 1 1-9.4.1 4.7 4.7 0 0 1 9.4 0Zm12.6 0a4.7 4.7 0 1 1-9.4 0 4.7 4.7 0 0 1 9.4 0Zm12.6 0a4.7 4.7 0 1 1-9.4 0 4.7 4.7 0 0 1 9.4 0Zm12.6 0a4.7 4.7 0 1 1-9.4.1 4.7 4.7 0 0 1 9.4 0Zm12.6 0a4.7 4.7 0 1 1-9.4 0 4.7 4.7 0 0 1 9.4 0Zm12.6 0a4.7 4.7 0 1 1-9.5.1 4.7 4.7 0 0 1 9.5 0Zm12.6 0a4.7 4.7 0 1 1-9.4 0 4.7 4.7 0 0 1 9.4 0Zm12.6 0a4.7 4.7 0 1 1-9.4 0 4.7 4.7 0 0 1 9.4 0Zm239.4 0a4.7 4.7 0 1 1-9.4 0 4.7 4.7 0 0 1 9.4 0Zm12.6 0a4.7 4.7 0 1 1-9.5 0 4.7 4.7 0 0 1 9.5 0Zm12.6 0a4.7 4.7 0 1 1-9.5.1 4.7 4.7 0 0 1 9.5 0Zm12.6 0a4.7 4.7 0 1 1-9.4 0 4.7 4.7 0 0 1 9.4 0Zm12.6 0a4.7 4.7 0 1 1-9.5.1 4.7 4.7 0 0 1 9.5 0Zm12.5 0a4.7 4.7 0 1 1-9.4 0 4.7 4.7 0 0 1 9.4 0Zm50.5 0a4.7 4.7 0 1 1-9.5.1 4.7 4.7 0 0 1 9.5 0Zm264.5 0a4.7 4.7 0 1 1-9.4 0 4.7 4.7 0 0 1 9.4 0Zm12.7 0a4.7 4.7 0 1 1-9.5.1 4.7 4.7 0 0 1 9.4 0Zm12.5 0a4.7 4.7 0 1 1-9.4 0 4.7 4.7 0 0 1 9.4 0Zm12.6 0a4.7 4.7 0 1 1-9.4 0 4.7 4.7 0 0 1 9.4 0Zm12.7 0a4.8 4.8 0 0 1-5.7 4.7 4.7 4.7 0 1 1 5.6-4.7Zm12.5 0a4.7 4.7 0 0 1-9.3 1 4.7 4.7 0 1 1 9.3-1Zm12.7 0a4.8 4.8 0 0 1-3 4.4 4.7 4.7 0 0 1-6.2-6.2 4.7 4.7 0 0 1 4.4-2.9 4.7 4.7 0 0 1 4.7 4.7Zm12.5 0a4.7 4.7 0 0 1-9.3 1c-.2-1-.1-1.9.3-2.8a4.7 4.7 0 0 1 7.6-1.5c1 .9 1.4 2.1 1.4 3.3Zm12.6 0a4.7 4.7 0 0 1-8 3.4 4.8 4.8 0 0 1-1.3-2.4c-.2-1-.1-1.9.3-2.8a4.8 4.8 0 0 1 4.3-2.9 4.7 4.7 0 0 1 4.7 4.7Zm12.6 0a4.8 4.8 0 0 1-5.6 4.7 4.7 4.7 0 1 1 5.6-4.7Zm12.6 0a4.7 4.7 0 0 1-9.3 1 4.7 4.7 0 1 1 9.3-1Zm12.7 0a4.7 4.7 0 0 1-3 4.4 4.7 4.7 0 0 1-6.5-3.4 4.8 4.8 0 0 1 2-4.9 4.7 4.7 0 0 1 6 .6c1 .9 1.4 2.1 1.4 3.3Zm-844.2 12.7a4.7 4.7 0 1 1-9.4 0 4.7 4.7 0 0 1 9.4 0Zm12.6 0a4.7 4.7 0 1 1-9.4 0 4.7 4.7 0 0 1 9.4 0Zm12.6 0a4.7 4.7 0 1 1-9.4 0 4.7 4.7 0 0 1 9.4 0Zm12.6 0a4.7 4.7 0 1 1-9.4 0 4.7 4.7 0 0 1 9.4 0Zm12.6 0a4.7 4.7 0 1 1-9.4 0 4.7 4.7 0 0 1 9.4 0Zm12.6 0a4.7 4.7 0 1 1-9.5 0 4.7 4.7 0 0 1 9.5 0Zm12.6 0a4.7 4.7 0 1 1-9.4 0 4.7 4.7 0 0 1 9.4 0Zm12.6 0a4.7 4.7 0 1 1-9.4 0 4.7 4.7 0 0 1 9.4 0Zm252 0a4.7 4.7 0 1 1-9.4 0 4.7 4.7 0 0 1 9.4 0Zm12.6 0a4.7 4.7 0 1 1-9.5 0 4.7 4.7 0 0 1 9.5 0Zm12.6 0a4.7 4.7 0 1 1-9.4 0 4.7 4.7 0 0 1 9.4 0Zm12.6 0a4.7 4.7 0 1 1-9.5 0 4.7 4.7 0 0 1 9.5 0Zm12.5 0a4.7 4.7 0 1 1-9.4 0 4.7 4.7 0 0 1 9.4 0Zm315 0a4.7 4.7 0 1 1-9.4 0 4.7 4.7 0 0 1 9.4 0Zm12.7 0a4.7 4.7 0 1 1-9.5 0 4.7 4.7 0 0 1 9.4 0Zm12.5 0a4.7 4.7 0 1 1-9.4 0 4.7 4.7 0 0 1 9.4 0Zm12.6 0a4.7 4.7 0 1 1-9.4 0 4.7 4.7 0 0 1 9.4 0Zm12.7 0a4.8 4.8 0 0 1-5.7 4.6 4.7 4.7 0 1 1 5.6-4.6Zm12.5 0a4.7 4.7 0 0 1-8 3.3 4.7 4.7 0 0 1 .7-7.3 4.7 4.7 0 0 1 7.3 4Zm12.7 0a4.8 4.8 0 0 1-3 4.4 4.7 4.7 0 0 1-6.5-3.5 4.8 4.8 0 0 1 2-4.9c.9-.5 1.8-.8 2.7-.8a4.7 4.7 0 0 1 4.7 4.8Zm12.5 0a4.7 4.7 0 0 1-8 3.3 4.7 4.7 0 0 1 .7-7.3 4.7 4.7 0 0 1 7.3 4Zm12.6 0a4.7 4.7 0 0 1-8 3.3 4.8 4.8 0 0 1-1.3-2.4c-.2-1-.1-1.9.3-2.8a4.8 4.8 0 0 1 4.3-2.9 4.7 4.7 0 0 1 4.7 4.8Zm12.6 0a4.8 4.8 0 0 1-2.9 4.4 4.7 4.7 0 1 1 3-4.4Zm12.6 0a4.7 4.7 0 0 1-8 3.3 4.7 4.7 0 0 1 .7-7.3 4.7 4.7 0 0 1 7.3 4Zm12.7 0a4.7 4.7 0 0 1-3 4.4 4.7 4.7 0 0 1-5.2-1 4.8 4.8 0 0 1 .7-7.3c.8-.6 1.8-.9 2.7-.9a4.7 4.7 0 0 1 4.7 4.8Zm-848.9 17.3a4.7 4.7 0 1 0 0-9.5 4.7 4.7 0 0 0 0 9.5Zm17.3-4.7a4.7 4.7 0 1 1-9.4 0 4.7 4.7 0 0 1 9.4 0Zm7.9 4.7a4.7 4.7 0 1 0 0-9.5 4.7 4.7 0 0 0 0 9.5Zm17.3-4.7a4.7 4.7 0 1 1-9.4 0 4.7 4.7 0 0 1 9.4 0Zm12.6 0a4.7 4.7 0 0 1-8 3.3 4.7 4.7 0 1 1 8-3.3Zm7.9 4.7a4.7 4.7 0 1 0 0-9.5 4.7 4.7 0 0 0 0 9.5Zm17.3-4.7a4.7 4.7 0 1 1-9.4 0 4.7 4.7 0 0 1 9.4 0Zm259.9 4.7a4.7 4.7 0 1 0 0-9.5 4.7 4.7 0 0 0 0 9.5Zm17.3-4.7a4.7 4.7 0 1 1-9.5 0 4.7 4.7 0 0 1 9.5 0Zm7.9 4.7a4.7 4.7 0 1 0 0-9.5 4.7 4.7 0 0 0 0 9.5Zm17.3-4.7a4.7 4.7 0 1 1-9.5 0 4.7 4.7 0 0 1 9.5 0Zm322.8 4.7a4.7 4.7 0 1 0 0-9.5 4.7 4.7 0 0 0 0 9.5Zm17.4-4.7a4.7 4.7 0 1 1-9.5 0 4.7 4.7 0 0 1 9.4 0Zm12.5 0a4.7 4.7 0 1 1-9.4 0 4.7 4.7 0 0 1 9.4 0Zm7.9 4.7a4.7 4.7 0 1 0 0-9.5 4.7 4.7 0 0 0 0 9.5Zm17.4-4.7a4.8 4.8 0 1 1-9.6 0 4.8 4.8 0 0 1 9.5 0Zm7.8 4.7a4.7 4.7 0 1 0 0-9.5 4.7 4.7 0 0 0 0 9.5Zm17.4-4.7a4.8 4.8 0 0 1-5.7 4.6 4.8 4.8 0 0 1-3.8-3.7 4.8 4.8 0 0 1 4.7-5.7 4.7 4.7 0 0 1 4.7 4.8Zm12.5 0a4.7 4.7 0 0 1-5.6 4.6 4.7 4.7 0 0 1-3.7-3.7 4.7 4.7 0 0 1 2-4.9 4.7 4.7 0 0 1 6 .6 4.6 4.6 0 0 1 1.3 3.4Zm7.9 4.7a4.7 4.7 0 1 0 0-9.5 4.7 4.7 0 0 0 0 9.5Zm17.3-4.7a4.8 4.8 0 1 1-9.5 0 4.8 4.8 0 0 1 9.5 0Zm7.9 4.7a4.7 4.7 0 1 0 0-9.5 4.7 4.7 0 0 0 0 9.5ZM248.8 496a4.7 4.7 0 1 1-9.4.1 4.7 4.7 0 0 1 9.4 0Zm12.6 0a4.7 4.7 0 1 1-9.4 0 4.7 4.7 0 0 1 9.4 0Zm12.6 0a4.7 4.7 0 1 1-9.4 0 4.7 4.7 0 0 1 9.4 0Zm12.6 0a4.7 4.7 0 1 1-9.4.1 4.7 4.7 0 0 1 9.4 0Zm12.6 0a4.7 4.7 0 1 1-9.4 0 4.7 4.7 0 0 1 9.4 0Zm12.6 0a4.7 4.7 0 1 1-9.5.1 4.7 4.7 0 0 1 9.5 0Zm277.2 0a4.7 4.7 0 1 1-9.4 0 4.7 4.7 0 0 1 9.4 0Zm12.6 0a4.7 4.7 0 1 1-9.5.1 4.7 4.7 0 0 1 9.5 0Zm12.6 0a4.7 4.7 0 1 1-9.4 0 4.7 4.7 0 0 1 9.4 0Zm340.1 0a4.7 4.7 0 1 1-9.4 0 4.7 4.7 0 0 1 9.4 0Zm12.7 0a4.7 4.7 0 1 1-9.5.1 4.7 4.7 0 0 1 9.4 0Zm63 0a4.8 4.8 0 0 1-3 4.5 4.7 4.7 0 0 1-6.2-6.3 4.7 4.7 0 0 1 4.4-2.9 4.7 4.7 0 0 1 4.7 4.7Zm12.5 0a4.7 4.7 0 0 1-9.3 1c-.2-1-.1-1.9.3-2.8a4.7 4.7 0 0 1 7.7-1.5 4.6 4.6 0 0 1 1.3 3.3Zm12.6 0a4.7 4.7 0 0 1-8 3.4 4.8 4.8 0 0 1-1.3-2.4c-.2-1-.1-1.9.3-2.8a4.8 4.8 0 0 1 4.3-2.9 4.7 4.7 0 0 1 4.7 4.7Zm12.6 0a4.8 4.8 0 0 1-5.6 4.7 4.8 4.8 0 1 1 5.6-4.7Zm12.6 0a4.7 4.7 0 0 1-9.3 1 4.7 4.7 0 1 1 9.3-1Zm-836.2 17.4a4.7 4.7 0 1 0 0-9.5 4.7 4.7 0 0 0 0 9.5Zm17.3-4.7a4.7 4.7 0 1 1-9.4 0 4.7 4.7 0 0 1 9.4 0Zm7.9 4.7a4.7 4.7 0 1 0 0-9.5 4.7 4.7 0 0 0 0 9.5Zm17.3-4.7a4.7 4.7 0 1 1-9.4 0 4.7 4.7 0 0 1 9.4 0Zm12.6 0a4.7 4.7 0 1 1-9.4 0 4.7 4.7 0 0 1 9.4 0Zm7.9 4.7a4.7 4.7 0 1 0 0-9.5 4.7 4.7 0 0 0 0 9.5Zm735.4-4.7a4.7 4.7 0 0 1-8 3.3 4.7 4.7 0 0 1 .7-7.3 4.7 4.7 0 0 1 7.3 4Zm7.9 4.7a4.7 4.7 0 1 0 0-9.5 4.7 4.7 0 0 0 0 9.5Zm113.4 0a4.7 4.7 0 1 0 0-9.5 4.7 4.7 0 0 0 0 9.5Zm-902.4 7.8a4.7 4.7 0 1 1-9.4 0 4.7 4.7 0 0 1 9.4 0Zm12.6 0a4.7 4.7 0 1 1-9.4 0 4.7 4.7 0 0 1 9.4 0Zm12.6 0a4.7 4.7 0 1 1-9.4 0 4.7 4.7 0 0 1 9.4 0Zm755.9 0a4.7 4.7 0 0 1-8 3.4 4.7 4.7 0 0 1 .7-7.3 4.7 4.7 0 0 1 7.3 4Zm100.8 0a4.7 4.7 0 1 1-9.4 0 4.7 4.7 0 0 1 9.4 0Zm12.7 0a4.7 4.7 0 0 1-3 4.4 4.8 4.8 0 0 1-6.5-3.4 4.7 4.7 0 0 1 2-4.9 4.7 4.7 0 0 1 6 .6c1 .9 1.4 2 1.4 3.3Zm-894.6 12.6a4.7 4.7 0 1 1-9.4 0 4.7 4.7 0 0 1 9.4 0Zm7.9 4.8a4.7 4.7 0 1 0 0-9.5 4.7 4.7 0 0 0 0 9.5Zm17.3-4.8a4.7 4.7 0 1 1-9.4.1 4.7 4.7 0 0 1 9.4 0Zm755.9 0a4.7 4.7 0 0 1-8 3.4 4.7 4.7 0 0 1-1-5.2 4.7 4.7 0 0 1 7.6-1.5c1 .9 1.4 2.1 1.4 3.3Zm88.2 0a4.8 4.8 0 0 1-2.9 4.4 4.7 4.7 0 0 1-6.2-6.1 4.8 4.8 0 0 1 4.4-3 4.7 4.7 0 0 1 4.7 4.7Zm-869.3 12.7a4.7 4.7 0 1 1-9.4 0 4.7 4.7 0 0 1 9.4 0Zm12.6 0a4.7 4.7 0 1 1-9.4 0 4.7 4.7 0 0 1 9.4 0Zm12.6 0a4.7 4.7 0 1 1-9.4 0 4.7 4.7 0 0 1 9.4 0Zm818.9 0a4.7 4.7 0 0 1-3 4.3 4.7 4.7 0 0 1-6.3-3.5 4.7 4.7 0 0 1 8-4.2 4.6 4.6 0 0 1 1.3 3.4Zm12.6 0a4.7 4.7 0 0 1-3 4.3 4.7 4.7 0 0 1-6.3-3.5 4.7 4.7 0 0 1 2-4.8 4.7 4.7 0 0 1 6 .6 4.6 4.6 0 0 1 1.3 3.4ZM261.4 559a4.7 4.7 0 1 1-9.4 0 4.7 4.7 0 0 1 9.4 0Zm7.9 4.8a4.7 4.7 0 1 0 0-9.5 4.7 4.7 0 0 0 0 9.5Zm17.3-4.8a4.7 4.7 0 1 1-9.4 0 4.7 4.7 0 0 1 9.4 0ZM274 571.6a4.7 4.7 0 1 1-9.4 0 4.7 4.7 0 0 1 9.4 0Zm12.6 0a4.8 4.8 0 1 1-9.5 0 4.8 4.8 0 0 1 9.5 0Zm0 12.6a4.7 4.7 0 1 1-9.4 0 4.7 4.7 0 0 1 9.4 0Zm12.6 0a4.7 4.7 0 1 1-9.4 0 4.7 4.7 0 0 1 9.4 0Zm7.9 4.8a4.7 4.7 0 1 0 0-9.5 4.7 4.7 0 0 0 0 9.5Z" fill="#919191"/></svg>